<?xml version="1.0" encoding="UTF-8"?>
<svg xmlns="http://www.w3.org/2000/svg" version="1.1" viewBox="0 0 1417.3 1417.3">
  <defs>
    <style>
      .cls-1 {
        fill: #fff;
      }

      .cls-2 {
        opacity: .3;
      }

      .cls-3 {
        fill: #b3b3b3;
      }
    </style>
  </defs>
  <!-- Generator: Adobe Illustrator 28.6.0, SVG Export Plug-In . SVG Version: 1.2.0 Build 709)  -->
  <g>
    <g id="Layer_1">
      <g id="_Ñëîé_1">
        <g class="cls-2">
          <rect class="cls-1" width="1417.3" height="1417.3"/>
          <g>
            <g>
              <path class="cls-3" d="M279.1,490.1c-.4-1.2-1.5-2.1-2.7-2.1s-.5,0-.8.1l-24.5,7.1c-1.5.4-2.4,2-1.9,3.5l7.1,24.5c.4,1.2,1.5,2.1,2.7,2.1s.5,0,.8,0l24.5-7.1c1.5-.4,2.4-2,1.9-3.5l-7.1-24.5h0ZM258.9,522.4l-7.1-24.5,24.5-7.1,7.1,24.5-24.5,7.1Z"/>
              <rect class="cls-1" x="255.2" y="493.6" width="25.5" height="25.5" transform="translate(-129.9 94.2) rotate(-16.1)"/>
              <path class="cls-3" d="M334.8,325.8c-.9-.9-2.3-1-3.4-.3-.2.1-.4.3-.6.5l-17.3,18.7c-1.1,1.1-1,2.9.2,4l18.7,17.3c.9.9,2.3,1,3.4.3.2-.1.4-.3.6-.5l17.3-18.7c1.1-1.1,1-2.9-.2-4l-18.7-17.3ZM334.3,363.9l-18.7-17.3,17.3-18.7,18.7,17.3-17.3,18.7Z"/>
              <rect class="cls-1" x="320.7" y="333.2" width="25.5" height="25.5" transform="translate(-146.9 355.6) rotate(-47.2)"/>
              <path class="cls-3" d="M479.5,109.1l-2.3-25.4c0-.7-.4-1.4-1-1.9-.5-.4-1.2-.7-1.8-.7s-.2,0-.3,0l-25.4,2.3c-1.6,0-2.7,1.5-2.6,3.1l2.3,25.4c0,.7.4,1.4,1,1.9.5.4,1.2.7,1.8.7s.2,0,.3,0l25.4-2.3c1.6,0,2.7-1.5,2.6-3.1ZM451.2,111.7l-2.3-25.4,25.4-2.3,2.3,25.4-25.4,2.3Z"/>
              <rect class="cls-1" x="450.1" y="85.2" width="25.5" height="25.5" transform="translate(-7 42.3) rotate(-5.2)"/>
              <path class="cls-3" d="M515.9,435.5l-24.2-8.2c-.3-.1-.6-.1-.9-.1s-.9,0-1.3.3c-.7.3-1.2.9-1.4,1.6l-8.2,24.2c-.5,1.5.3,3.1,1.8,3.6l24.2,8.2c.3.1.6.1.9.1s.9,0,1.3-.3c.7-.3,1.2-.9,1.4-1.6l8.2-24.2c.5-1.5-.3-3.1-1.8-3.6ZM506.8,462.3l-24.2-8.2,8.2-24.2,24.2,8.2-8.2,24.2Z"/>
              <rect class="cls-1" x="486.4" y="433.9" width="25.5" height="25.5" transform="translate(-83.9 776.2) rotate(-71.3)"/>
              <path class="cls-3" d="M382,651.3h-25.5c-1.6,0-2.8,1.3-2.8,2.8v25.5c0,1.6,1.3,2.8,2.8,2.8h25.5c1.6,0,2.8-1.3,2.8-2.8v-25.5c0-1.6-1.3-2.8-2.8-2.8ZM382,679.7h-25.5v-25.5h25.5v25.5Z"/>
              <rect class="cls-1" x="356.5" y="654.2" width="25.5" height="25.5"/>
              <path class="cls-3" d="M74.1,58.3l24.6,6.9c.3,0,.5,0,.8,0,1.2,0,2.4-.8,2.7-2.1l6.9-24.6c.4-1.5-.5-3.1-2-3.5l-24.6-6.9c-.3,0-.5-.1-.8-.1-1.2,0-2.4.8-2.7,2.1l-6.9,24.6c-.4,1.5.5,3.1,2,3.5ZM81.7,31l24.6,6.9-6.9,24.6-24.6-6.9s6.9-24.6,6.9-24.6Z"/>
              <rect class="cls-1" x="77.7" y="33.9" width="25.5" height="25.5" transform="translate(21.2 121.3) rotate(-74.4)"/>
              <path class="cls-3" d="M121.6,493.5l-25.1-4.5h-.5c-.6,0-1.1.2-1.6.5-.6.4-1,1.1-1.2,1.8l-4.5,25.1c-.3,1.5.8,3,2.3,3.3l25.1,4.5h.5c.6,0,1.1-.2,1.6-.5.6-.4,1-1.1,1.2-1.8l4.5-25.1c.3-1.5-.8-3-2.3-3.3h0ZM116.6,521.4l-25.1-4.5,4.5-25.1,25.1,4.5-4.5,25.1Z"/>
              <rect class="cls-1" x="93.6" y="493.9" width="25.5" height="25.5" transform="translate(-411.1 522.5) rotate(-79.9)"/>
              <path class="cls-3" d="M611.7,628.7l-24.9-5.7h-.6c-1.3,0-2.5.9-2.8,2.2l-5.7,24.9c-.3,1.5.6,3,2.1,3.4l24.9,5.7h.6c1.3,0,2.5-.9,2.8-2.2l5.7-24.9c.3-1.5-.6-3-2.1-3.4ZM605.4,656.3l-24.9-5.7,5.7-24.9,24.9,5.7-5.7,24.9Z"/>
              <rect class="cls-1" x="583" y="628.3" width="25.5" height="25.5" transform="translate(-161.4 1080) rotate(-77.2)"/>
              <path class="cls-3" d="M503.7,315.9c-.4-.6-1.1-1-1.9-1.1h-.4c-.6,0-1.2.2-1.7.6l-20.5,15.2c-1.3.9-1.5,2.7-.6,4l15.2,20.5c.6.7,1.4,1.1,2.3,1.1s1.2-.2,1.7-.6l20.5-15.2c1.3-.9,1.5-2.7.6-4l-15.2-20.5ZM496.2,353.3l-15.2-20.5,20.5-15.2,15.2,20.5-20.5,15.2Z"/>
              <rect class="cls-1" x="486" y="322.4" width="25.5" height="25.5" transform="translate(-101.5 364.5) rotate(-36.7)"/>
              <path class="cls-3" d="M195.9,130.1c.6.8,1.4,1.1,2.3,1.1s1.2-.2,1.7-.6l20.5-15.2c1.3-.9,1.5-2.7.6-4l-15.2-20.5c-.6-.8-1.4-1.1-2.3-1.1s-1.2.2-1.7.6l-20.5,15.2c-1.3.9-1.5,2.7-.6,4l15.2,20.5ZM203.4,92.7l15.2,20.5-20.5,15.2-15.2-20.5,20.5-15.2Z"/>
              <rect class="cls-1" x="188" y="97.6" width="25.5" height="25.5" transform="translate(-26.2 141.5) rotate(-36.6)"/>
              <path class="cls-3" d="M2.4,262.4l5.2-25c.3-1.5-.7-3-2.2-3.4L0,232.9v2.9l4.9,1L0,260v4.6c1.2-.2,2.2-1,2.4-2.2Z"/>
              <polygon class="cls-1" points="0 235.8 0 260 4.9 236.8 0 235.8"/>
              <path class="cls-3" d="M103.3,364.6h-.6c-.8,0-1.5.3-2.1.9l-10.3,10.8c-.7.8-1,1.9-.6,2.9l4.9,14.1c.3.9,1.1,1.6,2.1,1.8h.6c.8,0,1.5-.3,2.1-.9l10.3-10.8c.7-.8,1-1.9.6-2.9l-4.9-14.1c-.3-.9-1.1-1.6-2.1-1.8ZM97.4,392.3l-4.9-14.1,10.3-10.8,4.9,14.1-10.3,10.8Z"/>
              <polygon class="cls-1" points="92.5 378.2 97.4 392.3 107.6 381.5 102.7 367.4 92.5 378.2"/>
              <path class="cls-3" d="M152.6,278.3c-.2.1-.3.3-.4.4-.5.6-.8,1.3-.7,2.1l1.2,14.9c0,1.1.7,2,1.7,2.4l13.7,5.8c.9.4,2,.3,2.8-.3.2-.1.3-.3.4-.4.5-.6.8-1.3.7-2.1l-1.2-14.9c0-1.1-.7-2-1.7-2.4l-13.7-5.8c-.9-.4-2-.3-2.8.3ZM169.2,301.2l-13.7-5.8-1.2-14.9,13.8,5.8,1.2,14.9h-.1Z"/>
              <polygon class="cls-1" points="155.4 295.4 169.2 301.2 168 286.4 154.2 280.6 155.4 295.4"/>
              <path class="cls-3" d="M229.3,603.8h0l-14.9.5c-1.1,0-2,.7-2.5,1.6l-6.5,13.4c-.4.9-.4,1.9.2,2.8.5.8,1.4,1.3,2.4,1.3s0,0,0,0l14.9-.5c1.1,0,2-.7,2.5-1.6l6.5-13.4c.4-.9.4-1.9-.2-2.8-.5-.8-1.4-1.3-2.4-1.3ZM222.9,620l-14.9.5,6.5-13.4,14.9-.5-6.5,13.4Z"/>
              <polygon class="cls-1" points="207.9 620.5 222.9 620 229.3 606.6 214.4 607.1 207.9 620.5"/>
              <path class="cls-3" d="M414.9,285.9l-11.5-9.5c-.5-.4-1.2-.6-1.8-.6s-.6,0-.9.2c-.9.3-1.6,1.1-1.8,2.1l-3.1,14.6c-.2,1,.2,2.1,1,2.8l11.5,9.5c.5.4,1.2.6,1.8.6s.6,0,.9-.2c.9-.3,1.6-1.1,1.8-2.1l3.1-14.6c.2-1-.2-2.1-1-2.8ZM410,302.7l-11.5-9.5,3.1-14.6,11.5,9.5-3.1,14.6Z"/>
              <polygon class="cls-1" points="398.5 293.2 410 302.7 413.1 288.1 401.6 278.6 398.5 293.2"/>
              <path class="cls-3" d="M364.9,463c.5,0,1-.1,1.4-.4l13-7.4c.9-.5,1.5-1.5,1.4-2.6l-.5-14.9c0-1-.6-1.9-1.5-2.4-.4-.2-.9-.4-1.4-.4s-1,.1-1.4.4l-13,7.4c-.9.5-1.5,1.5-1.4,2.6l.5,14.9c0,1,.6,1.9,1.5,2.4.4.2.9.4,1.4.4ZM377.3,437.9l.5,14.9-13,7.4-.5-14.9,13-7.4Z"/>
              <polygon class="cls-1" points="377.9 452.8 377.3 437.9 364.3 445.2 364.9 460.2 377.9 452.8"/>
              <path class="cls-3" d="M420.9,387.9c.4.3.8.5,1.3.6l14.7,2.3c1,.2,2.1-.3,2.7-1.1l8.8-12c.6-.8.7-1.8.3-2.8s-.5-.8-.9-1.1c-.4-.3-.8-.5-1.3-.6l-14.7-2.3c-1-.2-2.1.3-2.7,1.1l-8.8,12c-.6.8-.7,1.8-.3,2.8s.5.8.9,1.1ZM446.2,376l-8.8,12-14.7-2.3,8.8-12,14.7,2.3Z"/>
              <polygon class="cls-1" points="437.4 388 446.2 376 431.5 373.7 422.6 385.7 437.4 388"/>
              <path class="cls-3" d="M254.2,442.3c.4.3.8.5,1.3.6l14.8,2.1c1,.1,2.1-.3,2.7-1.2l8.7-12.1c.6-.8.7-1.9.3-2.8-.2-.5-.5-.8-.9-1.1-.4-.3-.8-.5-1.3-.6l-14.8-2.1c-1-.1-2.1.3-2.7,1.2l-8.7,12.1c-.6.8-.7,1.9-.3,2.8.2.5.5.8.9,1.1h0ZM279.3,430l-8.7,12.1-14.8-2.1,8.7-12.1,14.8,2.1h0Z"/>
              <polygon class="cls-1" points="270.7 442.2 279.3 430 264.6 427.9 255.9 440.1 270.7 442.2"/>
              <path class="cls-3" d="M619.1,393.3l-14.9-.6h0c-1,0-2,.5-2.5,1.4l-7.4,13c-.5.9-.5,1.9,0,2.8s1.4,1.4,2.4,1.5l14.9.6h0c1,0,2-.5,2.5-1.4l7.4-13c.5-.9.5-1.9,0-2.8s-1.4-1.4-2.4-1.5ZM611.6,409.1l-14.9-.6,7.4-13,14.9.6-7.4,13Z"/>
              <polygon class="cls-1" points="596.7 408.5 611.6 409.1 619 396.1 604.1 395.6 596.7 408.5"/>
              <path class="cls-3" d="M622.5,219.2c-.2-1-.8-1.8-1.8-2.2-.3-.1-.7-.2-1-.2-.6,0-1.2.2-1.7.6l-11.9,9c-.8.6-1.3,1.7-1.1,2.7l2.5,14.7c.2,1,.8,1.8,1.8,2.2.3.1.7.2,1,.2.6,0,1.2-.2,1.7-.6l11.9-9c.8-.6,1.3-1.7,1.1-2.7l-2.5-14.7ZM610.4,243.5l-2.5-14.7,11.9-9,2.5,14.7-11.9,9Z"/>
              <polygon class="cls-1" points="607.8 228.8 610.4 243.5 622.3 234.4 619.7 219.7 607.8 228.8"/>
              <path class="cls-3" d="M602.3,532.1c-.5-.5-1.2-.8-2-.8s-.6,0-.9,0l-14.2,4.7c-.9.3-1.6,1.1-1.9,2.1-.2,1,0,2,.8,2.7l10.7,10.4c.5.5,1.2.8,2,.8s.6,0,.9,0l14.2-4.7c.9-.3,1.6-1.1,1.9-2.1.2-1,0-2-.8-2.7l-10.7-10.4ZM596.9,549.3l-10.7-10.4,14.2-4.7,10.7,10.4-14.2,4.7Z"/>
              <polygon class="cls-1" points="586.2 538.9 596.9 549.3 611.1 544.6 600.4 534.2 586.2 538.9"/>
              <path class="cls-3" d="M499.4,526.3c0-.7-.5-1.4-1-1.9s-.5-.3-.8-.5l-13.9-5.4c-.9-.4-2-.2-2.8.4s-1.2,1.6-1.1,2.6l1.7,14.8c0,.7.5,1.4,1,1.9s.5.3.8.5l13.9,5.4c.9.4,2,.2,2.8-.4.8-.6,1.2-1.6,1.1-2.6l-1.7-14.8ZM484.3,536.1l-1.7-14.8,13.9,5.4,1.7,14.8-13.9-5.4Z"/>
              <polygon class="cls-1" points="482.6 521.2 484.3 536.1 498.2 541.4 496.6 526.6 482.6 521.2"/>
              <path class="cls-3" d="M495.4,609.6c.5-.6.7-1.3.7-2s0-.6-.2-.9l-5.4-13.9c-.4-.9-1.2-1.6-2.1-1.8-1-.2-2,.2-2.6.9l-9.9,11.2c-.5.6-.7,1.3-.7,2s0,.6.2.9l5.4,13.9c.4.9,1.2,1.6,2.1,1.8,1,.2,2-.2,2.6-.9l9.9-11.2ZM478,605l9.9-11.2,5.4,13.9-9.9,11.2-5.4-13.9Z"/>
              <polygon class="cls-1" points="487.9 593.8 478 605 483.4 618.9 493.3 607.7 487.9 593.8"/>
              <path class="cls-3" d="M363.8,140.1c.8-.7,1-1.8.7-2.8l-4.3-14.3c-.3-.9-1-1.7-2-1.9h-.7c-.7,0-1.4.3-2,.8l-10.7,10.4c-.8.7-1,1.8-.7,2.8l4.3,14.3c.3.9,1,1.7,2,1.9h.7c.7,0,1.4-.3,2-.8l10.7-10.4ZM346.8,134.1l10.7-10.4,4.3,14.3-10.7,10.4-4.3-14.3h0Z"/>
              <polygon class="cls-1" points="357.6 123.8 346.8 134.1 351.1 148.4 361.8 138.1 357.6 123.8"/>
              <path class="cls-3" d="M269.1,170.1c-.1,1.1.4,2.1,1.2,2.7l12.4,8.3c.8.6,1.9.6,2.8.2.2-.1.4-.2.6-.4.6-.5.9-1.1,1-1.9l1.7-14.8c.1-1.1-.4-2.1-1.2-2.7l-12.4-8.3c-.8-.6-1.9-.6-2.8-.2-.2.1-.4.2-.6.4-.6.5-.9,1.1-1,1.9l-1.7,14.8ZM286,163.9l-1.7,14.8-12.4-8.3,1.7-14.8,12.4,8.3Z"/>
              <polygon class="cls-1" points="284.3 178.8 286 163.9 273.6 155.6 271.9 170.4 284.3 178.8"/>
              <path class="cls-3" d="M89,187.6l-7.7-12.8c-.5-.8-1.4-1.4-2.4-1.4s-1.9.5-2.4,1.4l-7.7,12.8c-.5.9-.5,2,0,2.9l7.7,12.8c.5.8,1.4,1.4,2.4,1.4s1.9-.5,2.4-1.4l7.7-12.8c.5-.9.5-2,0-2.9ZM78.8,201.8l-7.7-12.8,7.7-12.8,7.7,12.8-7.7,12.8Z"/>
              <polygon class="cls-1" points="71.1 189.1 78.8 201.8 86.6 189.1 78.8 176.3 71.1 189.1"/>
              <path class="cls-3" d="M101.4,132.8l14.9,1.5c1,0,2-.3,2.5-1.1s.7-1.8.4-2.8l-5.6-13.8c-.4-1-1.3-1.7-2.4-1.8l-14.9-1.5c-1,0-2,.3-2.5,1.1s-.7,1.8-.4,2.8l5.6,13.8c.4,1,1.3,1.7,2.4,1.8h0ZM96.1,116.1l14.9,1.5,5.6,13.8-14.9-1.5s-5.6-13.8-5.6-13.8Z"/>
              <polygon class="cls-1" points="110.9 117.6 96.1 116.1 101.6 130 116.5 131.4 110.9 117.6"/>
              <path class="cls-3" d="M546.1,51.6c.5,0,1,0,1.5-.4l12.7-7.8c.8-.5,1.4-1.4,1.4-2.4s-.5-1.9-1.4-2.4l-12.8-7.7c-.5-.3-1-.4-1.5-.4s-1,.1-1.5.4l-12.7,7.8c-.8.5-1.4,1.4-1.4,2.4s.5,1.9,1.4,2.4l12.8,7.7c.4.3,1,.4,1.5.4ZM546.1,33.3l12.8,7.7-12.7,7.8-12.8-7.7,12.7-7.8Z"/>
              <polygon class="cls-1" points="558.9 41 546.1 33.3 533.4 41.1 546.1 48.8 558.9 41"/>
              <path class="cls-3" d="M268.3,9.6c.4.2.8.2,1.2.2.6,0,1.1-.2,1.6-.5l12.3-8.5c.3-.2.6-.5.8-.9h-4.5l-10.2,7.1-.9-7.1h-2.9l.9,7.4c.1,1,.8,1.8,1.7,2.2h0Z"/>
              <polygon class="cls-1" points="279.7 0 268.6 0 269.5 7.1 279.7 0"/>
              <path class="cls-3" d="M13.6,521.6l5.3-13.9c.4-.9.2-2-.4-2.8-.5-.7-1.4-1.1-2.2-1.1s-.2,0-.3,0l-14.8,1.7c-.4,0-.8.2-1.1.4v6.3l1.5-3.8,14.8-1.7-5.3,13.9-11,1.2v2.9l11.3-1.3c1.1,0,1.9-.8,2.3-1.8h-.1Z"/>
              <polygon class="cls-1" points="16.3 506.6 1.5 508.3 0 512.1 0 521.8 11 520.6 16.3 506.6"/>
              <path class="cls-3" d="M14.1,159.5c.9-.5,1.4-1.4,1.4-2.4s-.5-1.9-1.3-2.5l-12.5-8.1c-.5-.3-1-.5-1.5-.5S0,146,0,146v3h.2c0-.1,12.5,8,12.5,8L-.1,164.2v3c.4,0,.8-.1,1.1-.4l13-7.3h.1Z"/>
              <polygon class="cls-1" points=".2 148.9 0 149 0 164.2 12.8 157 .2 148.9"/>
              <path class="cls-3" d="M6.2,33.1l-3-14.6c-.2-1-.9-1.8-1.8-2.1s-.6-.2-1-.2H0v3.1l.4-.3,3,14.6L0,36.4v3.6l5.2-4.2c.8-.7,1.2-1.7,1-2.8h0Z"/>
              <polygon class="cls-1" points=".4 19 0 19.3 0 36.4 3.4 33.6 .4 19"/>
              <path class="cls-3" d="M308.3,69.4l3.7-14.1c.2-.9,0-2-.7-2.7l-10.1-10.6c-.5-.6-1.3-.9-2.1-.9s-.5,0-.7,0l-13.7,3.6c-1,.3-1.8,1-2,2l-3.7,14.1c-.2.9,0,2,.7,2.7l10.1,10.6c.5.6,1.3.9,2.1.9s.5,0,.7,0l13.7-3.6c1-.3,1.8-1,2-2ZM305.5,68.7l-13.7,3.6-10.1-10.6,3.7-14.1,13.7-3.6,10.1,10.6-3.7,14.1Z"/>
              <polygon class="cls-1" points="299.1 44 285.4 47.5 281.8 61.7 291.8 72.2 305.5 68.7 309.2 54.6 299.1 44"/>
              <path class="cls-3" d="M455.7,11h14.2c1,0,2-.6,2.5-1.5l5.3-9.5h-3.2l-4.5,8.2h-14.2l-4.5-8.2h-3.2l5.3,9.5c.5.9,1.4,1.5,2.5,1.5h-.2Z"/>
              <polygon class="cls-1" points="469.9 8.2 474.4 0 451.2 0 455.7 8.2 469.9 8.2"/>
              <path class="cls-3" d="M1.6,394l7.1-12.8c.5-.9.5-1.9,0-2.8l-7.1-12.8c-.4-.6-.9-1.1-1.6-1.3v4.3l6.2,11.2-6.2,11.2v4.3c.7-.2,1.2-.7,1.6-1.3h0Z"/>
              <polygon class="cls-1" points="0 368.7 0 391 6.2 379.8 0 368.7"/>
              <path class="cls-3" d="M118.1,614.9c-.3-1-1.2-1.7-2.2-1.8l-14-2.4h-.5c-.9,0-1.7.4-2.2,1.1l-9.1,11.4c-.6.8-.8,1.8-.5,2.7l4.9,13.8c.3,1,1.2,1.7,2.2,1.8l14,2.4h.5c.9,0,1.7-.4,2.2-1.1l9.1-11.4c.6-.8.8-1.8.5-2.7l-4.9-13.8ZM111.2,641.1l-14-2.4-4.9-13.8,9.1-11.4,14,2.4,4.9,13.8-9.1,11.4Z"/>
              <polygon class="cls-1" points="101.4 613.5 92.3 624.9 97.2 638.7 111.2 641.1 120.3 629.7 115.4 615.9 101.4 613.5"/>
              <path class="cls-3" d="M190.2,542.8c-.3-1-1.2-1.7-2.2-1.8l-14-2.4h-.5c-.9,0-1.7.4-2.2,1.1l-9.1,11.4c-.6.8-.8,1.8-.5,2.7l4.9,13.8c.3,1,1.2,1.7,2.2,1.8l14,2.4h.5c.9,0,1.7-.4,2.2-1.1l9.1-11.4c.6-.8.8-1.8.5-2.7l-4.9-13.8ZM183.3,568.9l-14-2.4-4.9-13.8,9.1-11.4,14,2.4,4.9,13.8-9.1,11.4Z"/>
              <polygon class="cls-1" points="173.6 541.4 164.5 552.8 169.3 566.5 183.3 568.9 192.4 557.5 187.5 543.7 173.6 541.4"/>
              <path class="cls-3" d="M326.4,598c.3-1,0-2.1-.7-2.8l-9.8-10.2c-.1,0-.2-.2-.4-.3-.7-.5-1.6-.7-2.4-.5l-14.1,3.8c-.9.3-1.7,1-2,1.9l-4.3,14c-.3,1,0,2.1.7,2.8l9.8,10.2c.1,0,.2.2.4.3.7.5,1.6.7,2.4.5l14.1-3.8c.9-.3,1.7-1,2-1.9l4.3-14ZM305.4,614.9l-9.8-10.2,4.3-14,14.1-3.8,9.8,10.2-4.3,14-14.1,3.8Z"/>
              <polygon class="cls-1" points="313.9 587 299.8 590.7 295.5 604.7 305.4 614.9 319.5 611.1 323.7 597.2 313.9 587"/>
              <path class="cls-3" d="M185.9,236c.7,0,1.4-.3,2-.8l10.6-10c.7-.7,1-1.7.8-2.6l-2.9-14.3c-.2-1-.9-1.8-1.9-2.1l-13.5-4.3c-.3,0-.6-.1-.9-.1-.7,0-1.4.3-1.9.8l-10.6,10c-.7.7-1,1.7-.8,2.6l2.9,14.3c.2,1,.9,1.8,1.9,2.1l13.5,4.3c.3,0,.6.1.9.1h-.1ZM169.4,214.6l10.6-10,13.5,4.3,2.9,14.3-10.6,10-13.5-4.3-2.9-14.3Z"/>
              <polygon class="cls-1" points="196.5 223.1 193.5 208.8 180 204.6 169.4 214.6 172.4 228.9 185.9 233.1 196.5 223.1"/>
              <path class="cls-3" d="M572.9,174.1l2-14.5c0-1-.2-1.9-1-2.6l-11.2-9.3c-.5-.4-1.2-.7-1.8-.7s-.7,0-1,.2l-13.2,5.1c-1,.4-1.6,1.2-1.8,2.3l-2,14.5c0,1,.2,1.9,1,2.6l11.2,9.3c.5.4,1.2.7,1.8.7s.7,0,1-.2l13.2-5.1c1-.4,1.6-1.2,1.8-2.3ZM556.9,178.8l-11.2-9.3,2-14.5,13.2-5.1,11.2,9.3-2,14.5-13.2,5.1Z"/>
              <polygon class="cls-1" points="560.9 149.9 547.7 155 545.7 169.4 556.9 178.8 570.1 173.7 572.1 159.2 560.9 149.9"/>
              <path class="cls-3" d="M206,429.2l7.1-12.8c.5-.9.5-1.9,0-2.8l-7.1-12.8c-.5-.9-1.4-1.5-2.5-1.5h-14.2c-1,0-2,.6-2.5,1.5l-7.1,12.8c-.5.9-.5,1.9,0,2.8l7.1,12.8c.5.9,1.4,1.5,2.5,1.5h14.2c1,0,2-.6,2.5-1.5ZM189.4,427.8l-7.1-12.8,7.1-12.8h14.2l7.1,12.8-7.1,12.8h-14.2Z"/>
              <polygon class="cls-1" points="203.6 402.3 189.4 402.3 182.3 415.1 189.4 427.8 203.6 427.8 210.6 415.1 203.6 402.3"/>
              <path class="cls-3" d="M334.3,233.6c-.4-.9-1.3-1.6-2.3-1.7l-14.1-1.4h-.3c-.9,0-1.8.5-2.3,1.2l-8.3,12c-.6.8-.7,1.8-.3,2.7l5.8,13.4c.4.9,1.3,1.6,2.3,1.7l14.1,1.4h.3c.9,0,1.8-.5,2.3-1.2l8.3-12c.6-.8.7-1.8.3-2.7l-5.8-13.4h0ZM329.2,260.1l-14.1-1.4-5.8-13.4,8.3-12,14.1,1.4,5.8,13.4-8.3,12Z"/>
              <polygon class="cls-1" points="317.5 233.3 309.3 245.3 315.1 258.7 329.2 260.1 337.5 248.1 331.7 234.7 317.5 233.3"/>
              <path class="cls-3" d="M392.1,521.1c-.5-.3-1-.5-1.5-.5s-.9,0-1.3.3l-26.3,13.3c-.9.5-1.5,1.4-1.5,2.4s.4,2,1.3,2.5l24.7,16.1c.5.3,1,.5,1.5.5s.9,0,1.3-.3c.9-.5,1.5-1.4,1.5-2.4l1.6-29.4c0-1-.4-2-1.3-2.5h0ZM389,552.9l-24.7-16.1,26.3-13.3-1.6,29.4h0Z"/>
              <polygon class="cls-1" points="389 552.9 390.6 523.5 364.3 536.8 389 552.9"/>
              <path class="cls-3" d="M369.2,43.9h.6l28.8-6.2c1-.2,1.8-.9,2.1-1.9.3-1,0-2-.6-2.8l-19.7-21.9c-.5-.6-1.3-.9-2.1-.9s-.4,0-.6,0c-1,.2-1.8.9-2.1,1.9l-9.1,28c-.3,1,0,2,.6,2.8.5.6,1.3.9,2.1.9h0ZM378.3,13l19.7,21.9-28.8,6.2,9.1-28h0Z"/>
              <polygon class="cls-1" points="378.3 13 369.2 41.1 398 34.9 378.3 13"/>
              <path class="cls-3" d="M615,117.1c.3,0,.5,0,.8,0l28.2-8.4c1-.3,1.7-1.1,1.9-2.1s0-2-.8-2.7l-21.4-20.2c-.5-.5-1.2-.8-1.9-.8s-.5,0-.8,0c-1,.3-1.7,1.1-1.9,2.1l-6.8,28.7c-.2,1,0,2,.8,2.7.5.5,1.2.8,1.9.8h0ZM621.8,85.6l21.4,20.2-28.2,8.4,6.8-28.7h0Z"/>
              <polygon class="cls-1" points="621.8 85.6 615 114.3 643.3 105.8 621.8 85.6"/>
              <path class="cls-3" d="M449.2,190.2c-.5-.7-1.4-1.1-2.2-1.1s-.3,0-.4,0c-1,.1-1.9.8-2.2,1.7l-11.2,27.3c-.4.9-.2,2,.4,2.8.5.7,1.4,1.1,2.2,1.1s.3,0,.4,0l29.2-3.9c1-.1,1.9-.8,2.2-1.7.4-.9.2-2-.4-2.8l-18-23.3h0ZM435.7,219.2l11.2-27.2,18,23.3-29.2,3.9Z"/>
              <polygon class="cls-1" points="435.7 219.2 464.9 215.2 446.9 191.9 435.7 219.2"/>
              <path class="cls-3" d="M580.2,320.8h.4c.9,0,1.7-.4,2.2-1.1l18-23.3c.6-.8.8-1.9.4-2.8-.4-.9-1.2-1.6-2.2-1.7l-29.2-4h-.4c-.9,0-1.7.4-2.2,1.1-.6.8-.8,1.9-.4,2.8l11.1,27.3c.4.9,1.2,1.6,2.2,1.7h.1ZM598.6,294.7l-18,23.3-11.1-27.3,29.2,4h-.1Z"/>
              <polygon class="cls-1" points="598.6 294.7 569.4 290.7 580.6 317.9 598.6 294.7"/>
              <path class="cls-3" d="M7,640.5c-.5-.9-1.4-1.5-2.4-1.5,0,0-1.8,0-4.6,0v2.8h4.5c0,0-4.5,7.4-4.5,7.4v5.4l6.9-11.3c.5-.9.6-1.9,0-2.8h0Z"/>
              <polygon class="cls-1" points="0 641.7 0 649.1 4.5 641.8 0 641.7"/>
              <path class="cls-3" d="M688.5,228.8c-1.3,0-2.5.9-2.8,2.3l-5.2,25c-.2.7,0,1.5.4,2.1s1.1,1.1,1.8,1.2l25,5.2h1v-4.6l-.4,1.8-25-5.2,5.2-25,20.1,4.2v-2.9l-19.5-4.1h-.6Z"/>
              <polygon class="cls-1" points="683.3 256.6 708.3 261.8 708.7 260 708.7 235.8 688.5 231.6 683.3 256.6"/>
              <path class="cls-3" d="M707.5,507.3l-5.3,13.9c-.4.9-.2,2,.4,2.8.5.7,1.4,1.1,2.2,1.1s.2,0,.3,0l3.6-.4v-2.9l-3.9.4,3.9-10.1v-6.3c-.5.3-.9.8-1.2,1.4h0Z"/>
              <polygon class="cls-1" points="708.7 521.8 708.7 512.1 704.8 522.2 708.7 521.8"/>
              <path class="cls-3" d="M694.5,153.7c-.9.5-1.4,1.4-1.4,2.4s.5,1.9,1.3,2.5l12.5,8.1c.5.3,1,.5,1.5.5s.2,0,.2,0v-3h-.2c0,.1-12.5-8-12.5-8l12.8-7.2v-3c-.4,0-.8.1-1.2.4l-13,7.3h0Z"/>
              <polygon class="cls-1" points="708.4 164.3 708.7 164.2 708.7 149 695.9 156.2 708.4 164.3"/>
              <path class="cls-3" d="M695.7,26.2c-.8.7-1.2,1.7-1,2.8l3,14.6c.2,1,.9,1.8,1.8,2.1.3,0,.6.2,1,.2.6,0,1.3-.2,1.8-.6l6.4-5.2v-3.6l-8.2,6.6-3-14.6,11.2-9.1v-3.1c-.5,0-1,.3-1.4.6l-11.6,9.4h0Z"/>
              <polygon class="cls-1" points="700.5 43 708.7 36.4 708.7 19.3 697.5 28.4 700.5 43"/>
              <path class="cls-3" d="M693.6,364.3c-1,0-2,.6-2.5,1.5l-7.1,12.8c-.5.9-.5,1.9,0,2.8l7.1,12.8c.5.9,1.4,1.5,2.5,1.5h14.2c.3,0,.6,0,.9-.1v-4.3l-.9,1.6h-14.2l-7.1-12.8,7.1-12.8h14.2l.9,1.6v-4.3c-.3,0-.6-.1-.9-.1h-14.2v-.2Z"/>
              <polygon class="cls-1" points="693.6 367.1 686.5 379.8 693.6 392.6 707.8 392.6 708.7 391 708.7 368.7 707.8 367.1 693.6 367.1"/>
              <path class="cls-3" d="M681.3,639.6c-.5.9-.6,1.9,0,2.8l14.1,25.9c.5.9,1.4,1.5,2.4,1.5h0c1,0,1.9-.5,2.4-1.4l8.5-13.9v-5.4l-10.9,17.8-14.1-25.9,25,.6v-2.8c-8.3-.2-25-.6-25-.6-1,0-1.9.5-2.4,1.4h0Z"/>
              <polygon class="cls-1" points="697.8 666.9 708.7 649.1 708.7 641.7 683.7 641.1 697.8 666.9"/>
              <path class="cls-3" d="M652.2,443.9c-.5-.8-1.4-1.2-2.3-1.2s-.2,0-.3,0c-1,0-1.9.7-2.3,1.6l-12.4,26.7c-.4.9-.3,2,.3,2.8.5.8,1.4,1.2,2.3,1.2s.2,0,.3,0l29.3-2.6c1,0,1.9-.7,2.3-1.6.4-.9.3-2-.3-2.8l-17-24.1h.1ZM637.5,472.3l12.4-26.7,17,24.1-29.3,2.6h-.1Z"/>
              <polygon class="cls-1" points="637.5 472.3 666.8 469.6 649.9 445.5 637.5 472.3"/>
              <path class="cls-3" d="M781.2,436.5c.5-.7.7-1.7.4-2.6v-.2c-.4-.9-1.3-1.6-2.3-1.7l-29.3-3.3c-1-.1-2,.3-2.6,1.1-.5.7-.7,1.7-.4,2.6v.2l11.8,27c.4.9,1.3,1.6,2.3,1.7s2-.3,2.6-1.1l17.5-23.7ZM749.7,431.5l29.3,3.3-17.5,23.7-11.8-27Z"/>
              <polygon class="cls-1" points="749.7 431.5 761.5 458.5 779 434.8 749.7 431.5"/>
              <path class="cls-3" d="M241.2,305.9c-.1-1-.8-1.9-1.7-2.3-.4-.1-.7-.2-1.1-.2-.6,0-1.2.2-1.7.6l-23.5,17.8c-.8.6-1.2,1.6-1.1,2.6.1,1,.8,1.9,1.7,2.3l27.1,11.5c.4.1.7.2,1.1.2.6,0,1.2-.2,1.7-.6.8-.6,1.2-1.6,1.1-2.6l-3.6-29.2h0ZM214.8,324l23.5-17.8,3.6,29.2-27.1-11.5h0Z"/>
              <polygon class="cls-1" points="214.8 324 242 335.4 238.3 306.2 214.8 324"/>
              <path class="cls-3" d="M92.1,292.8c.2-1,0-2-.8-2.7l-21.5-20.1c-.5-.5-1.2-.8-1.9-.8s-.6,0-.8.1c-1,.3-1.7,1.1-1.9,2.1l-6.7,28.7c-.2,1,0,2,.8,2.7.5.5,1.2.8,1.9.8s.6,0,.8-.1l28.2-8.6c1-.3,1.7-1.1,1.9-2.1ZM61.2,300.7l6.7-28.7,21.5,20.1-28.2,8.6Z"/>
              <polygon class="cls-1" points="61.2 300.7 89.4 292.1 67.9 272 61.2 300.7"/>
              <path class="cls-3" d="M149.1,14.2c.5.9,1.4,1.4,2.5,1.4h29.5c1,0,1.9-.5,2.5-1.4.5-.9.5-2,0-2.8L177.1,0h-3.3l7.4,12.8h-29.5L159.1,0h-3.3l-6.5,11.3c-.5.9-.5,2,0,2.8h-.2Z"/>
              <polygon class="cls-1" points="181 12.8 173.6 0 158.9 0 151.5 12.8 181 12.8"/>
              <path class="cls-3" d="M605.7,29.3h.5c.8,0,1.6-.4,2.1-1l19.2-22.3c.7-.8.9-1.8.5-2.8-.3-1-1.2-1.7-2.1-1.9l-7.6-1.4h-15.2l22.2,4.2-19.2,22.3L596.8-.1h-3l9.6,27.5c.3,1,1.2,1.7,2.1,1.9h.2Z"/>
              <polygon class="cls-1" points="625.5 4.2 603.3 0 597 0 606.3 26.5 625.5 4.2"/>
              <path class="cls-3" d="M284.6,706.9l-1.9-14.8c-.1-1-.8-1.8-1.7-2.2-.4-.2-.8-.2-1.2-.2-.6,0-1.1.2-1.6.5l-12.3,8.5c-.9.6-1.3,1.6-1.2,2.7l.9,7.4h2.9l-1-7.7,12.3-8.5,1.9,14.8-2.1,1.4h4.5c.3-.5.5-1.2.4-1.8h.1Z"/>
              <polygon class="cls-1" points="279.9 692.4 267.6 700.9 268.6 708.7 279.7 708.7 281.8 707.2 279.9 692.4"/>
              <path class="cls-3" d="M479.4,702.7l-7.1-12.8c-.5-.9-1.4-1.5-2.5-1.5h-14.2c-1,0-2,.6-2.5,1.5l-7.1,12.8c-.5.9-.5,1.9,0,2.8l1.8,3.2h3.2l-2.5-4.6,7.1-12.8h14.2l7.1,12.8-2.5,4.6h3.2l1.8-3.2c.5-.9.5-1.9,0-2.8Z"/>
              <polygon class="cls-1" points="469.9 691.3 455.7 691.3 448.6 704.1 451.2 708.7 474.4 708.7 477 704.1 469.9 691.3"/>
              <path class="cls-3" d="M166.2,693.1c-1,0-1.9.5-2.5,1.4l-8.2,14.2h3.3l7.4-12.8,7.4,12.8h3.3l-8.2-14.2c-.5-.9-1.4-1.4-2.5-1.4Z"/>
              <polygon class="cls-1" points="158.9 708.7 173.6 708.7 166.2 695.9 158.9 708.7"/>
              <path class="cls-3" d="M596.6,704.6c-.8,0-1.6.4-2.1,1-.7.8-.9,1.8-.5,2.8v.3h3.1l-.4-1.3,6.7,1.3h15.2l-21.3-4.1h-.7Z"/>
              <polygon class="cls-1" points="597 708.7 603.3 708.7 596.6 707.4 597 708.7"/>
            </g>
            <g>
              <path class="cls-3" d="M987.7,490.1c-.4-1.2-1.5-2.1-2.7-2.1s-.5,0-.8.1l-24.5,7.1c-1.5.4-2.4,2-1.9,3.5l7.1,24.5c.4,1.2,1.5,2.1,2.7,2.1s.5,0,.8,0l24.5-7.1c1.5-.4,2.4-2,1.9-3.5l-7.1-24.5h0ZM967.5,522.4l-7.1-24.5,24.5-7.1,7.1,24.5-24.5,7.1Z"/>
              <rect class="cls-1" x="963.7" y="493.2" width="25.5" height="25.5" transform="translate(-102 290.6) rotate(-16.1)"/>
              <path class="cls-3" d="M1043.5,325.8c-.9-.9-2.3-1-3.4-.3-.2.1-.4.3-.6.5l-17.3,18.7c-1.1,1.1-1,2.9.2,4l18.7,17.3c.9.9,2.3,1,3.4.3.2-.1.4-.3.6-.5l17.3-18.7c1.1-1.1,1-2.9-.2-4l-18.7-17.3h0ZM1043,363.9l-18.7-17.3,17.3-18.7,18.7,17.3-17.3,18.7Z"/>
              <rect class="cls-1" x="1029.6" y="333.3" width="25.5" height="25.5" transform="translate(80.3 875.7) rotate(-47.2)"/>
              <path class="cls-3" d="M1188.1,109.1l-2.3-25.4c0-.7-.4-1.4-1-1.9-.5-.4-1.2-.7-1.8-.7s-.2,0-.3,0l-25.4,2.3c-1.6,0-2.7,1.5-2.6,3.1l2.3,25.4c0,.7.4,1.4,1,1.9.5.4,1.2.7,1.8.7s.2,0,.3,0l25.4-2.3c1.6,0,2.7-1.5,2.6-3.1ZM1159.9,111.7l-2.3-25.4,25.4-2.3,2.3,25.4-25.4,2.3Z"/>
              <rect class="cls-1" x="1158.6" y="85.5" width="25.5" height="25.5" transform="translate(-4.1 106.6) rotate(-5.2)"/>
              <path class="cls-3" d="M1224.5,435.5l-24.2-8.2c-.3-.1-.6-.1-.9-.1s-.9,0-1.3.3c-.7.3-1.2.9-1.4,1.6l-8.2,24.2c-.5,1.5.3,3.1,1.8,3.6l24.2,8.2c.3.1.6.1.9.1s.9,0,1.3-.3c.7-.3,1.2-.9,1.4-1.6l8.2-24.2c.5-1.5-.3-3.1-1.8-3.6ZM1215.5,462.3l-24.2-8.2,8.2-24.2,24.2,8.2-8.2,24.2Z"/>
              <rect class="cls-1" x="1195.6" y="434" width="25.5" height="25.5" transform="translate(397.8 1448.1) rotate(-71.3)"/>
              <path class="cls-3" d="M1090.7,651.3h-25.5c-1.6,0-2.8,1.3-2.8,2.8v25.5c0,1.6,1.3,2.8,2.8,2.8h25.5c1.6,0,2.8-1.3,2.8-2.8v-25.5c0-1.6-1.3-2.8-2.8-2.8ZM1090.7,679.7h-25.5v-25.5h25.5v25.5Z"/>
              <rect class="cls-1" x="1065.1" y="654.2" width="25.5" height="25.5"/>
              <path class="cls-3" d="M782.7,58.3l24.6,6.9c.3,0,.5,0,.8,0,1.2,0,2.4-.8,2.7-2.1l6.9-24.6c.4-1.5-.5-3.1-2-3.5l-24.6-6.9c-.3,0-.5-.1-.8-.1-1.2,0-2.4.8-2.7,2.1l-6.9,24.6c-.4,1.5.5,3.1,2,3.5ZM790.4,31l24.6,6.9-6.9,24.6-24.6-6.9s6.9-24.6,6.9-24.6Z"/>
              <rect class="cls-1" x="785.9" y="33.8" width="25.5" height="25.5" transform="translate(539 803.2) rotate(-74.4)"/>
              <path class="cls-3" d="M830.2,493.5l-25.1-4.5h-.5c-.6,0-1.1.2-1.6.5-.6.4-1,1.1-1.2,1.8l-4.5,25.1c-.3,1.5.8,3,2.3,3.3l25.1,4.5h.5c.6,0,1.1-.2,1.6-.5.6-.4,1-1.1,1.2-1.8l4.5-25.1c.3-1.5-.8-3-2.3-3.3h0ZM825.3,521.4l-25.1-4.5,4.5-25.1,25.1,4.5-4.5,25.1Z"/>
              <rect class="cls-1" x="802.2" y="494" width="25.5" height="25.5" transform="translate(173.2 1220.2) rotate(-79.9)"/>
              <path class="cls-3" d="M1320.4,628.7l-24.9-5.7h-.6c-1.3,0-2.5.9-2.8,2.2l-5.7,24.9c-.3,1.5.6,3,2.1,3.4l24.9,5.7h.6c1.3,0,2.5-.9,2.8-2.2l5.7-24.9c.3-1.5-.6-3-2.1-3.4ZM1314.1,656.3l-24.9-5.7,5.7-24.9,24.9,5.7-5.7,24.9Z"/>
              <rect class="cls-1" x="1291.7" y="628.4" width="25.5" height="25.5" transform="translate(390.2 1771.1) rotate(-77.2)"/>
              <path class="cls-3" d="M1212.3,315.9c-.4-.6-1.1-1-1.9-1.1h-.4c-.6,0-1.2.2-1.7.6l-20.5,15.2c-1.3.9-1.5,2.7-.6,4l15.2,20.5c.6.7,1.4,1.1,2.3,1.1s1.2-.2,1.7-.6l20.5-15.2c1.3-.9,1.5-2.7.6-4l-15.2-20.5ZM1204.8,353.3l-15.2-20.5,20.5-15.2,15.2,20.5-20.5,15.2Z"/>
              <rect class="cls-1" x="1194.4" y="322.1" width="25.5" height="25.5" transform="translate(39.2 787.8) rotate(-36.7)"/>
              <path class="cls-3" d="M904.5,130.1c.6.8,1.4,1.1,2.3,1.1s1.2-.2,1.7-.6l20.5-15.2c1.3-.9,1.5-2.7.6-4l-15.2-20.5c-.6-.8-1.4-1.1-2.3-1.1s-1.2.2-1.7.6l-20.5,15.2c-1.3.9-1.5,2.7-.6,4l15.2,20.5ZM912.1,92.7l15.2,20.5-20.5,15.2-15.2-20.5,20.5-15.2Z"/>
              <rect class="cls-1" x="896.5" y="97.4" width="25.5" height="25.5" transform="translate(113.6 563.8) rotate(-36.6)"/>
              <path class="cls-3" d="M711.1,262.4l5.2-25c.3-1.5-.7-3-2.2-3.4l-5.4-1.1v2.9l4.9,1-4.9,23.2v4.6c1.2-.2,2.2-1,2.4-2.2Z"/>
              <polygon class="cls-1" points="708.7 235.8 708.7 260 713.5 236.8 708.7 235.8"/>
              <path class="cls-3" d="M812,364.6h-.6c-.8,0-1.5.3-2.1.9l-10.3,10.8c-.7.8-1,1.9-.6,2.9l4.9,14.1c.3.9,1.1,1.6,2.1,1.8h.6c.8,0,1.5-.3,2.1-.9l10.3-10.8c.7-.8,1-1.9.6-2.9l-4.9-14.1c-.3-.9-1.1-1.6-2.1-1.8ZM806,392.3l-4.9-14.1,10.3-10.8,4.9,14.1-10.3,10.8Z"/>
              <polygon class="cls-1" points="801.1 378.2 806 392.3 816.3 381.5 811.4 367.4 801.1 378.2"/>
              <path class="cls-3" d="M861.2,278.3c-.2.1-.3.3-.4.4-.5.6-.8,1.3-.7,2.1l1.2,14.9c0,1.1.7,2,1.7,2.4l13.7,5.8c.9.4,2,.3,2.8-.3.2-.1.3-.3.4-.4.5-.6.8-1.3.7-2.1l-1.2-14.9c0-1.1-.7-2-1.7-2.4l-13.7-5.8c-.9-.4-2-.3-2.8.3ZM877.8,301.2l-13.7-5.8-1.2-14.9,13.7,5.8,1.2,14.9Z"/>
              <polygon class="cls-1" points="864.1 295.4 877.8 301.2 876.6 286.4 862.9 280.6 864.1 295.4"/>
              <path class="cls-3" d="M938,603.8h0l-14.9.5c-1.1,0-2,.7-2.5,1.6l-6.5,13.4c-.4.9-.4,1.9.2,2.8.5.8,1.4,1.3,2.4,1.3s0,0,0,0l14.9-.5c1.1,0,2-.7,2.5-1.6l6.5-13.4c.4-.9.4-1.9-.2-2.8-.5-.8-1.4-1.3-2.4-1.3ZM931.5,620l-14.9.5,6.5-13.4,14.9-.5-6.5,13.4Z"/>
              <polygon class="cls-1" points="916.6 620.5 931.5 620 938 606.6 923.1 607.1 916.6 620.5"/>
              <path class="cls-3" d="M1123.6,285.9l-11.5-9.5c-.5-.4-1.2-.6-1.8-.6s-.6,0-.9.2c-.9.3-1.6,1.1-1.8,2.1l-3.1,14.6c-.2,1,.2,2.1,1,2.8l11.5,9.5c.5.4,1.2.6,1.8.6s.6,0,.9-.2c.9-.3,1.6-1.1,1.8-2.1l3.1-14.6c.2-1-.2-2.1-1-2.8ZM1118.7,302.7l-11.5-9.5,3.1-14.6,11.5,9.5-3.1,14.6Z"/>
              <polygon class="cls-1" points="1107.1 293.2 1118.7 302.7 1121.8 288.1 1110.2 278.6 1107.1 293.2"/>
              <path class="cls-3" d="M1073.5,463c.5,0,1-.1,1.4-.4l13-7.4c.9-.5,1.5-1.5,1.4-2.6l-.5-14.9c0-1-.6-1.9-1.5-2.4-.4-.2-.9-.4-1.4-.4s-1,.1-1.4.4l-13,7.4c-.9.5-1.5,1.5-1.4,2.6l.5,14.9c0,1,.6,1.9,1.5,2.4.4.2.9.4,1.4.4ZM1086,437.9l.5,14.9-13,7.4-.5-14.9,13-7.4Z"/>
              <polygon class="cls-1" points="1086.5 452.8 1086 437.9 1073 445.2 1073.5 460.2 1086.5 452.8"/>
              <path class="cls-3" d="M1129.5,387.9c.4.3.8.5,1.3.6l14.7,2.3c1,.2,2.1-.3,2.7-1.1l8.8-12c.6-.8.7-1.8.3-2.8s-.5-.8-.9-1.1c-.4-.3-.8-.5-1.3-.6l-14.7-2.3c-1-.2-2.1.3-2.7,1.1l-8.8,12c-.6.8-.7,1.8-.3,2.8s.5.8.9,1.1ZM1154.9,376l-8.8,12-14.7-2.3,8.8-12,14.7,2.3Z"/>
              <polygon class="cls-1" points="1146 388 1154.9 376 1140.1 373.7 1131.3 385.7 1146 388"/>
              <path class="cls-3" d="M962.8,442.3c.4.3.8.5,1.3.6l14.8,2.1c1,.1,2.1-.3,2.7-1.2l8.7-12.1c.6-.8.7-1.9.3-2.8-.2-.5-.5-.8-.9-1.1-.4-.3-.8-.5-1.3-.6l-14.8-2.1c-1-.1-2.1.3-2.7,1.2l-8.7,12.1c-.6.8-.7,1.9-.3,2.8.2.5.5.8.9,1.1ZM988,430l-8.7,12.1-14.8-2.1,8.7-12.1,14.8,2.1Z"/>
              <polygon class="cls-1" points="979.3 442.2 988 430 973.2 427.9 964.5 440.1 979.3 442.2"/>
              <path class="cls-3" d="M1327.8,393.3l-14.9-.6h0c-1,0-2,.5-2.5,1.4l-7.4,13c-.5.9-.5,1.9,0,2.8s1.4,1.4,2.4,1.5l14.9.6h0c1,0,2-.5,2.5-1.4l7.4-13c.5-.9.5-1.9,0-2.8s-1.4-1.4-2.4-1.5ZM1320.2,409.1l-14.9-.6,7.4-13,14.9.6-7.4,13Z"/>
              <polygon class="cls-1" points="1305.3 408.5 1320.2 409.1 1327.7 396.1 1312.7 395.6 1305.3 408.5"/>
              <path class="cls-3" d="M1331.2,219.2c-.2-1-.8-1.8-1.8-2.2-.3-.1-.7-.2-1-.2-.6,0-1.2.2-1.7.6l-11.9,9c-.8.6-1.3,1.7-1.1,2.7l2.5,14.7c.2,1,.8,1.8,1.8,2.2.3.1.7.2,1,.2.6,0,1.2-.2,1.7-.6l11.9-9c.8-.6,1.3-1.7,1.1-2.7l-2.5-14.7ZM1319,243.5l-2.5-14.7,11.9-9,2.5,14.7-11.9,9Z"/>
              <polygon class="cls-1" points="1316.5 228.8 1319 243.5 1330.9 234.4 1328.4 219.7 1316.5 228.8"/>
              <path class="cls-3" d="M1311,532.1c-.5-.5-1.2-.8-2-.8s-.6,0-.9,0l-14.2,4.7c-.9.3-1.6,1.1-1.9,2.1-.2,1,0,2,.8,2.7l10.7,10.4c.5.5,1.2.8,2,.8s.6,0,.9,0l14.2-4.7c.9-.3,1.6-1.1,1.9-2.1.2-1,0-2-.8-2.7l-10.7-10.4ZM1305.6,549.3l-10.7-10.4,14.2-4.7,10.7,10.4-14.2,4.7Z"/>
              <polygon class="cls-1" points="1294.9 538.9 1305.6 549.3 1319.7 544.6 1309 534.2 1294.9 538.9"/>
              <path class="cls-3" d="M1208,526.3c0-.7-.5-1.4-1-1.9-.2-.2-.5-.3-.8-.5l-13.9-5.4c-.9-.4-2-.2-2.8.4-.8.6-1.2,1.6-1.1,2.6l1.7,14.8c0,.7.5,1.4,1,1.9.2.2.5.3.8.5l13.9,5.4c.9.4,2,.2,2.8-.4.8-.6,1.2-1.6,1.1-2.6l-1.7-14.8ZM1193,536.1l-1.7-14.8,13.9,5.4,1.7,14.8-13.9-5.4Z"/>
              <polygon class="cls-1" points="1191.3 521.2 1193 536.1 1206.9 541.4 1205.2 526.6 1191.3 521.2"/>
              <path class="cls-3" d="M1204,609.6c.5-.6.7-1.3.7-2s0-.6-.2-.9l-5.4-13.9c-.4-.9-1.2-1.6-2.1-1.8s-2,.2-2.6.9l-9.9,11.2c-.5.6-.7,1.3-.7,2s0,.6.2.9l5.4,13.9c.4.9,1.2,1.6,2.1,1.8,1,.2,2-.2,2.6-.9l9.9-11.2ZM1186.7,605l9.9-11.2,5.4,13.9-9.9,11.2-5.4-13.9Z"/>
              <polygon class="cls-1" points="1196.5 593.8 1186.7 605 1192 618.9 1201.9 607.7 1196.5 593.8"/>
              <path class="cls-3" d="M1072.5,140.1c.8-.7,1-1.8.7-2.8l-4.3-14.3c-.3-.9-1-1.7-2-1.9h-.7c-.7,0-1.4.3-2,.8l-10.7,10.4c-.8.7-1,1.8-.7,2.8l4.3,14.3c.3.9,1,1.7,2,1.9h.7c.7,0,1.4-.3,2-.8l10.7-10.4ZM1055.5,134.1l10.7-10.4,4.3,14.3-10.7,10.4-4.3-14.3h0Z"/>
              <polygon class="cls-1" points="1066.2 123.8 1055.5 134.1 1059.8 148.4 1070.5 138.1 1066.2 123.8"/>
              <path class="cls-3" d="M977.7,170.1c0,1.1.4,2.1,1.2,2.7l12.4,8.3c.8.6,1.9.6,2.8.2.2-.1.4-.2.6-.4.6-.5.9-1.1,1-1.9l1.7-14.8c0-1.1-.4-2.1-1.2-2.7l-12.4-8.3c-.8-.6-1.9-.6-2.8-.2-.2.1-.4.2-.6.4-.6.5-.9,1.1-1,1.9l-1.7,14.8ZM994.6,163.9l-1.7,14.8-12.4-8.3,1.7-14.8,12.4,8.3Z"/>
              <polygon class="cls-1" points="992.9 178.8 994.6 163.9 982.2 155.6 980.5 170.4 992.9 178.8"/>
              <path class="cls-3" d="M797.6,187.6l-7.7-12.8c-.5-.8-1.4-1.4-2.4-1.4s-1.9.5-2.4,1.4l-7.7,12.8c-.5.9-.5,2,0,2.9l7.7,12.8c.5.8,1.4,1.4,2.4,1.4s1.9-.5,2.4-1.4l7.7-12.8c.5-.9.5-2,0-2.9ZM787.5,201.8l-7.7-12.8,7.7-12.8,7.7,12.8-7.7,12.8Z"/>
              <polygon class="cls-1" points="779.7 189.1 787.5 201.8 795.2 189.1 787.5 176.3 779.7 189.1"/>
              <path class="cls-3" d="M810,132.8l14.9,1.5c1,0,2-.3,2.5-1.1.6-.8.7-1.8.4-2.8l-5.6-13.8c-.4-1-1.3-1.7-2.4-1.8l-14.9-1.5c-1,0-2,.3-2.5,1.1-.6.8-.7,1.8-.4,2.8l5.6,13.8c.4,1,1.3,1.7,2.4,1.8h0ZM804.7,116.1l14.9,1.5,5.6,13.8-14.9-1.5s-5.6-13.8-5.6-13.8Z"/>
              <polygon class="cls-1" points="819.6 117.6 804.7 116.1 810.3 130 825.1 131.4 819.6 117.6"/>
              <path class="cls-3" d="M1254.8,51.6c.5,0,1,0,1.5-.4l12.7-7.8c.8-.5,1.4-1.4,1.4-2.4s-.5-1.9-1.4-2.4l-12.8-7.7c-.4-.3-1-.4-1.5-.4s-1,.1-1.5.4l-12.7,7.8c-.8.5-1.4,1.4-1.4,2.4s.5,1.9,1.4,2.4l12.8,7.7c.4.3,1,.4,1.5.4ZM1254.8,33.3l12.8,7.7-12.7,7.8-12.8-7.7,12.7-7.8Z"/>
              <polygon class="cls-1" points="1267.5 41 1254.8 33.3 1242 41.1 1254.8 48.8 1267.5 41"/>
              <path class="cls-3" d="M977,9.6c.4.2.8.2,1.2.2.6,0,1.1-.2,1.6-.5l12.3-8.5c.3-.2.6-.5.8-.9h-4.5l-10.2,7.1-.9-7.1h-2.9l.9,7.4c0,1,.8,1.8,1.7,2.2h0Z"/>
              <polygon class="cls-1" points="988.3 0 977.2 0 978.1 7.1 988.3 0"/>
              <path class="cls-3" d="M722.3,521.6l5.3-13.9c.4-.9.2-2-.4-2.8-.5-.7-1.4-1.1-2.2-1.1s-.2,0-.3,0l-14.8,1.7c-.4,0-.8.2-1.2.4v6.3l1.5-3.8,14.8-1.7-5.3,13.9-11,1.2v2.9l11.3-1.3c1,0,1.9-.8,2.3-1.8h0Z"/>
              <polygon class="cls-1" points="725 506.6 710.1 508.3 708.7 512.1 708.7 521.8 719.6 520.6 725 506.6"/>
              <path class="cls-3" d="M733,570.5l-14.2,4.5c-.9.3-1.7,1.1-1.9,2s0,1.8.5,2.4c0,0,0,.2.2.2l2.5,2.5,2.2-1.8-2.8-2.8,10.3-3.2,4.9-3.9c-.6-.2-1.2-.2-1.8,0h0Z"/>
              <polygon class="cls-1" points="722.4 580.4 730 574.4 719.6 577.7 722.4 580.4"/>
              <path class="cls-3" d="M731,591l14.2-4.5c.9-.3,1.7-1.1,1.9-2s0-1.8-.5-2.4c0,0,0-.2-.2-.2l-10.5-10.6c-.3-.3-.6-.5-1-.7l-4.9,3.9,3.9-1.2,10.5,10.6-14.2,4.5-7.8-7.8-2.2,1.8,8,8c.7.8,1.8,1,2.9.7h-.1Z"/>
              <polygon class="cls-1" points="744.4 583.8 733.9 573.2 730 574.4 722.4 580.4 730.2 588.2 744.4 583.8"/>
              <path class="cls-3" d="M722.8,159.5c.9-.5,1.4-1.4,1.4-2.4s-.5-1.9-1.3-2.5l-12.5-8.1c-.5-.3-1-.5-1.5-.5s-.2,0-.2,0v3h.2c0-.1,12.5,8,12.5,8l-12.8,7.2v3c.4,0,.8-.1,1.2-.4l13-7.3h0Z"/>
              <polygon class="cls-1" points="708.9 148.9 708.7 149 708.7 164.2 721.4 157 708.9 148.9"/>
              <path class="cls-3" d="M714.9,33.1l-3-14.6c-.2-1-.9-1.8-1.8-2.1s-.6-.2-1-.2h-.4v3.1l.4-.3,3,14.6-3.4,2.8v3.6l5.2-4.2c.8-.7,1.2-1.7,1-2.8h0Z"/>
              <polygon class="cls-1" points="709.1 19 708.7 19.3 708.7 36.4 712.1 33.6 709.1 19"/>
              <path class="cls-3" d="M1016.9,69.4l3.7-14.1c.2-.9,0-2-.7-2.7l-10.1-10.6c-.5-.6-1.3-.9-2.1-.9s-.5,0-.7,0l-13.7,3.6c-1,.3-1.8,1-2,2l-3.7,14.1c-.2.9,0,2,.7,2.7l10.1,10.6c.5.6,1.3.9,2.1.9s.5,0,.7,0l13.7-3.6c1-.3,1.8-1,2-2ZM1014.2,68.7l-13.7,3.6-10.1-10.6,3.7-14.1,13.7-3.6,10.1,10.6-3.7,14.1Z"/>
              <polygon class="cls-1" points="1007.8 44 994.1 47.5 990.4 61.7 1000.5 72.2 1014.2 68.7 1017.9 54.6 1007.8 44"/>
              <path class="cls-3" d="M1164.4,11h14.2c1,0,2-.6,2.5-1.5l5.3-9.5h-3.2l-4.5,8.2h-14.2l-4.5-8.2h-3.2l5.3,9.5c.5.9,1.4,1.5,2.5,1.5h-.2Z"/>
              <polygon class="cls-1" points="1178.5 8.2 1183.1 0 1159.8 0 1164.4 8.2 1178.5 8.2"/>
              <path class="cls-3" d="M710.3,394l7.1-12.8c.5-.9.5-1.9,0-2.8l-7.1-12.8c-.4-.6-.9-1.1-1.6-1.3v4.3l6.2,11.2-6.2,11.2v4.3c.7-.2,1.2-.7,1.6-1.3h0Z"/>
              <polygon class="cls-1" points="708.7 368.7 708.7 391 714.9 379.8 708.7 368.7"/>
              <path class="cls-3" d="M826.7,614.9c-.3-1-1.2-1.7-2.2-1.8l-14-2.4h-.5c-.9,0-1.7.4-2.2,1.1l-9.1,11.4c-.6.8-.8,1.8-.5,2.7l4.9,13.8c.3,1,1.2,1.7,2.2,1.8l14,2.4h.5c.9,0,1.7-.4,2.2-1.1l9.1-11.4c.6-.8.8-1.8.5-2.7l-4.9-13.8ZM819.8,641.1l-14-2.4-4.9-13.8,9.1-11.4,14,2.4,4.9,13.8-9.1,11.4Z"/>
              <polygon class="cls-1" points="810.1 613.5 801 624.9 805.8 638.7 819.8 641.1 828.9 629.7 824 615.9 810.1 613.5"/>
              <path class="cls-3" d="M898.9,542.8c-.3-1-1.2-1.7-2.2-1.8l-14-2.4h-.5c-.9,0-1.7.4-2.2,1.1l-9.1,11.4c-.6.8-.8,1.8-.5,2.7l4.9,13.8c.3,1,1.2,1.7,2.2,1.8l14,2.4h.5c.9,0,1.7-.4,2.2-1.1l9.1-11.4c.6-.8.8-1.8.5-2.7l-4.9-13.8ZM892,568.9l-14-2.4-4.9-13.8,9.1-11.4,14,2.4,4.9,13.8-9.1,11.4Z"/>
              <polygon class="cls-1" points="882.2 541.4 873.1 552.8 878 566.5 892 568.9 901.1 557.5 896.2 543.7 882.2 541.4"/>
              <path class="cls-3" d="M1035.1,598c.3-1,0-2.1-.7-2.8l-9.8-10.2c0,0-.2-.2-.4-.3-.7-.5-1.6-.7-2.4-.5l-14.1,3.8c-.9.3-1.7,1-2,1.9l-4.3,14c-.3,1,0,2.1.7,2.8l9.8,10.2c0,0,.2.2.4.3.7.5,1.6.7,2.4.5l14.1-3.8c.9-.3,1.7-1,2-1.9l4.3-14h0ZM1014,614.9l-9.8-10.2,4.3-14,14.1-3.8,9.8,10.2-4.3,14-14.1,3.8Z"/>
              <polygon class="cls-1" points="1022.6 587 1008.5 590.7 1004.2 604.7 1014 614.9 1028.1 611.1 1032.4 597.2 1022.6 587"/>
              <path class="cls-3" d="M894.5,236c.7,0,1.4-.3,2-.8l10.6-10c.7-.7,1-1.7.8-2.6l-2.9-14.3c-.2-1-.9-1.8-1.9-2.1l-13.5-4.3c-.3,0-.6-.1-.9-.1-.7,0-1.4.3-2,.8l-10.6,10c-.7.7-1,1.7-.8,2.6l2.9,14.3c.2,1,.9,1.8,1.9,2.1l13.5,4.3c.3,0,.6.1.9.1ZM878.1,214.6l10.6-10,13.5,4.3,2.9,14.3-10.6,10-13.5-4.3-2.9-14.3Z"/>
              <polygon class="cls-1" points="905.1 223.1 902.2 208.8 888.7 204.6 878.1 214.6 881 228.9 894.5 233.1 905.1 223.1"/>
              <path class="cls-3" d="M1281.6,174.1l2-14.5c0-1-.2-1.9-1-2.6l-11.2-9.3c-.5-.4-1.2-.7-1.8-.7s-.7,0-1,.2l-13.2,5.1c-1,.4-1.6,1.2-1.8,2.3l-2,14.5c0,1,.2,1.9,1,2.6l11.2,9.3c.5.4,1.2.7,1.8.7s.7,0,1-.2l13.2-5.1c1-.4,1.6-1.2,1.8-2.3ZM1265.5,178.8l-11.2-9.3,2-14.5,13.2-5.1,11.2,9.3-2,14.5-13.2,5.1Z"/>
              <polygon class="cls-1" points="1269.5 149.9 1256.3 155 1254.3 169.4 1265.5 178.8 1278.7 173.7 1280.8 159.2 1269.5 149.9"/>
              <path class="cls-3" d="M914.7,429.2l7.1-12.8c.5-.9.5-1.9,0-2.8l-7.1-12.8c-.5-.9-1.4-1.5-2.5-1.5h-14.2c-1,0-2,.6-2.5,1.5l-7.1,12.8c-.5.9-.5,1.9,0,2.8l7.1,12.8c.5.9,1.4,1.5,2.5,1.5h14.2c1,0,2-.6,2.5-1.5ZM898,427.8l-7.1-12.8,7.1-12.8h14.2l7.1,12.8-7.1,12.8h-14.2Z"/>
              <polygon class="cls-1" points="912.2 402.3 898 402.3 891 415.1 898 427.8 912.2 427.8 919.3 415.1 912.2 402.3"/>
              <path class="cls-3" d="M1042.9,233.6c-.4-.9-1.3-1.6-2.3-1.7l-14.1-1.4h-.3c-.9,0-1.8.5-2.3,1.2l-8.3,12c-.6.8-.7,1.8-.3,2.7l5.8,13.4c.4.9,1.3,1.6,2.3,1.7l14.1,1.4h.3c.9,0,1.8-.5,2.3-1.2l8.3-12c.6-.8.7-1.8.3-2.7l-5.8-13.4h0ZM1037.8,260.1l-14.1-1.4-5.8-13.4,8.3-12,14.1,1.4,5.8,13.4-8.3,12Z"/>
              <polygon class="cls-1" points="1026.2 233.3 1017.9 245.3 1023.7 258.7 1037.8 260.1 1046.1 248.1 1040.3 234.7 1026.2 233.3"/>
              <path class="cls-3" d="M1100.8,521.1c-.5-.3-1-.5-1.5-.5s-.9,0-1.3.3l-26.3,13.3c-.9.5-1.5,1.4-1.5,2.4s.4,2,1.3,2.5l24.7,16.1c.5.3,1,.5,1.5.5s.9,0,1.3-.3c.9-.5,1.5-1.4,1.5-2.4l1.6-29.4c0-1-.4-2-1.3-2.5h0ZM1097.7,552.9l-24.7-16.1,26.3-13.3-1.6,29.4h0Z"/>
              <polygon class="cls-1" points="1097.7 552.9 1099.3 523.5 1073 536.8 1097.7 552.9"/>
              <path class="cls-3" d="M1077.9,43.9h.6l28.8-6.2c1-.2,1.8-.9,2.1-1.9.3-1,0-2-.6-2.8l-19.7-21.9c-.5-.6-1.3-.9-2.1-.9s-.4,0-.6,0c-1,.2-1.8.9-2.1,1.9l-9.1,28c-.3,1,0,2,.6,2.8.5.6,1.3.9,2.1.9h0ZM1087,13l19.7,21.9-28.8,6.2,9.1-28h0Z"/>
              <polygon class="cls-1" points="1087 13 1077.9 41.1 1106.7 34.9 1087 13"/>
              <path class="cls-3" d="M1323.7,117.1c.3,0,.5,0,.8,0l28.2-8.4c1-.3,1.7-1.1,1.9-2.1.2-1,0-2-.8-2.7l-21.4-20.2c-.5-.5-1.2-.8-1.9-.8s-.5,0-.8,0c-1,.3-1.7,1.1-1.9,2.1l-6.8,28.7c-.2,1,0,2,.8,2.7.5.5,1.2.8,1.9.8h0ZM1330.5,85.6l21.4,20.2-28.2,8.4,6.8-28.7h0Z"/>
              <polygon class="cls-1" points="1330.5 85.6 1323.7 114.3 1351.9 105.8 1330.5 85.6"/>
              <path class="cls-3" d="M1157.8,190.2c-.5-.7-1.4-1.1-2.2-1.1s-.3,0-.4,0c-1,.1-1.9.8-2.2,1.7l-11.2,27.2c-.4.9-.2,2,.4,2.8.5.7,1.4,1.1,2.2,1.1s.3,0,.4,0l29.2-3.9c1-.1,1.9-.8,2.2-1.7s.2-2-.4-2.8l-18-23.3ZM1144.4,219.2l11.2-27.2,18,23.3-29.2,3.9Z"/>
              <polygon class="cls-1" points="1144.4 219.2 1173.6 215.2 1155.6 191.9 1144.4 219.2"/>
              <path class="cls-3" d="M1288.9,320.8h.4c.9,0,1.7-.4,2.2-1.1l18-23.3c.6-.8.8-1.9.4-2.8s-1.2-1.6-2.2-1.7l-29.2-4h-.4c-.9,0-1.7.4-2.2,1.1-.6.8-.8,1.9-.4,2.8l11.1,27.3c.4.9,1.2,1.6,2.2,1.7h0ZM1307.3,294.7l-18,23.3-11.1-27.3,29.2,4h0Z"/>
              <polygon class="cls-1" points="1307.3 294.7 1278.1 290.7 1289.2 317.9 1307.3 294.7"/>
              <path class="cls-3" d="M715.6,640.5c-.5-.9-1.4-1.5-2.4-1.5,0,0-1.8,0-4.6,0v2.8h4.5c0,0-4.5,7.4-4.5,7.4v5.4l6.9-11.3c.5-.9.6-1.9,0-2.8h0Z"/>
              <polygon class="cls-1" points="708.7 641.7 708.7 649.1 713.1 641.8 708.7 641.7"/>
              <path class="cls-3" d="M1397.2,228.8c-1.3,0-2.5.9-2.8,2.3l-5.2,25c-.2.7,0,1.5.4,2.1s1.1,1.1,1.8,1.2l25,5.2h1v-4.6l-.4,1.8-25-5.2,5.2-25,20.1,4.2v-2.9l-19.5-4.1h-.6Z"/>
              <polygon class="cls-1" points="1392 256.6 1417 261.8 1417.3 260 1417.3 235.8 1397.2 231.6 1392 256.6"/>
              <path class="cls-3" d="M1416.1,507.3l-5.3,13.9c-.4.9-.2,2,.4,2.8.5.7,1.4,1.1,2.2,1.1s.2,0,.3,0l3.6-.4v-2.9l-3.9.4,3.9-10.1v-6.3c-.5.3-.9.8-1.2,1.4h0Z"/>
              <polygon class="cls-1" points="1417.3 521.8 1417.3 512.1 1413.4 522.2 1417.3 521.8"/>
              <path class="cls-3" d="M1403.2,153.7c-.9.5-1.4,1.4-1.4,2.4s.5,1.9,1.3,2.5l12.5,8.1c.5.3,1,.5,1.5.5s.2,0,.2,0v-3h-.2c0,.1-12.5-8-12.5-8l12.7-7.2v-3c-.4,0-.8.1-1.2.4l-13,7.3h0Z"/>
              <polygon class="cls-1" points="1417.1 164.3 1417.3 164.2 1417.3 149 1404.6 156.2 1417.1 164.3"/>
              <path class="cls-3" d="M1404.4,26.2c-.8.7-1.2,1.7-1,2.8l3,14.6c.2,1,.9,1.8,1.8,2.1.3,0,.6.2,1,.2.6,0,1.3-.2,1.8-.6l6.4-5.2v-3.6l-8.2,6.6-3-14.6,11.2-9.1v-3.1c-.5,0-1,.3-1.4.6l-11.6,9.4h0Z"/>
              <polygon class="cls-1" points="1409.1 43 1417.3 36.4 1417.3 19.3 1406.2 28.4 1409.1 43"/>
              <path class="cls-3" d="M1402.3,364.3c-1,0-2,.6-2.5,1.5l-7.1,12.8c-.5.9-.5,1.9,0,2.8l7.1,12.8c.5.9,1.4,1.5,2.5,1.5h14.2c.3,0,.6,0,.9-.1v-4.3l-.9,1.6h-14.2l-7.1-12.8,7.1-12.8h14.2l.9,1.6v-4.3c-.3,0-.6-.1-.9-.1h-14.2v-.2Z"/>
              <polygon class="cls-1" points="1402.3 367.1 1395.2 379.8 1402.3 392.6 1416.4 392.6 1417.3 391 1417.3 368.7 1416.4 367.1 1402.3 367.1"/>
              <path class="cls-3" d="M1389.9,639.6c-.5.9-.6,1.9,0,2.8l14.1,25.9c.5.9,1.4,1.5,2.4,1.5h0c1,0,1.9-.5,2.4-1.4l8.5-13.9v-5.4l-10.9,17.8-14.1-25.9,25,.6v-2.8c-8.3-.2-24.9-.6-25-.6-1,0-1.9.5-2.4,1.4h0Z"/>
              <polygon class="cls-1" points="1406.4 666.9 1417.3 649.1 1417.3 641.7 1392.4 641.1 1406.4 666.9"/>
              <path class="cls-3" d="M1360.9,443.9c-.5-.8-1.4-1.2-2.3-1.2s-.2,0-.3,0c-1,0-1.9.7-2.3,1.6l-12.4,26.7c-.4.9-.3,2,.3,2.8.5.8,1.4,1.2,2.3,1.2s.2,0,.3,0l29.3-2.6c1,0,1.9-.7,2.3-1.6s.3-2-.3-2.8l-17-24.1h0ZM1346.2,472.3l12.4-26.7,17,24.1-29.3,2.6h0Z"/>
              <polygon class="cls-1" points="1346.2 472.3 1375.5 469.6 1358.5 445.5 1346.2 472.3"/>
              <path class="cls-3" d="M949.8,305.9c0-1-.8-1.9-1.7-2.3-.4-.1-.7-.2-1.1-.2-.6,0-1.2.2-1.7.6l-23.5,17.8c-.8.6-1.2,1.6-1.1,2.6,0,1,.8,1.9,1.7,2.3l27.1,11.5c.4.1.7.2,1.1.2.6,0,1.2-.2,1.7-.6.8-.6,1.2-1.6,1.1-2.6l-3.6-29.2h0ZM923.5,324l23.5-17.8,3.6,29.2-27.1-11.5h0Z"/>
              <polygon class="cls-1" points="923.5 324 950.6 335.4 947 306.2 923.5 324"/>
              <path class="cls-3" d="M800.8,292.8c.2-1,0-2-.8-2.7l-21.5-20.1c-.5-.5-1.2-.8-1.9-.8s-.6,0-.8.1c-1,.3-1.7,1.1-1.9,2.1l-6.7,28.7c-.2,1,0,2,.8,2.7.5.5,1.2.8,1.9.8s.6,0,.8-.1l28.2-8.6c1-.3,1.7-1.1,1.9-2.1ZM769.9,300.7l6.7-28.7,21.5,20.1-28.2,8.6Z"/>
              <polygon class="cls-1" points="769.9 300.7 798 292.1 776.5 272 769.9 300.7"/>
              <path class="cls-3" d="M857.7,14.2c.5.9,1.4,1.4,2.5,1.4h29.5c1,0,1.9-.5,2.5-1.4.5-.9.5-2,0-2.8l-6.5-11.3h-3.3l7.4,12.8h-29.5l7.4-12.8h-3.3l-6.5,11.3c-.5.9-.5,2,0,2.8h-.2Z"/>
              <polygon class="cls-1" points="889.6 12.8 882.3 0 867.5 0 860.2 12.8 889.6 12.8"/>
              <path class="cls-3" d="M1314.4,29.3h.5c.8,0,1.6-.4,2.1-1l19.2-22.3c.7-.8.9-1.8.5-2.8-.3-1-1.2-1.7-2.1-1.9l-7.6-1.4h-15.2l22.2,4.2-19.2,22.3L1305.5-.1h-3l9.6,27.5c.3,1,1.2,1.7,2.1,1.9h.2Z"/>
              <polygon class="cls-1" points="1334.2 4.2 1311.9 0 1305.7 0 1314.9 26.5 1334.2 4.2"/>
              <path class="cls-3" d="M993.2,706.9l-1.9-14.8c0-1-.8-1.8-1.7-2.2-.4-.2-.8-.2-1.2-.2-.6,0-1.1.2-1.6.5l-12.3,8.5c-.9.6-1.3,1.6-1.2,2.7l.9,7.4h2.9l-1-7.7,12.3-8.5,1.9,14.8-2.1,1.4h4.5c.3-.5.4-1.2.4-1.8h0Z"/>
              <polygon class="cls-1" points="988.5 692.4 976.3 700.9 977.2 708.7 988.3 708.7 990.4 707.2 988.5 692.4"/>
              <path class="cls-3" d="M1188.1,702.7l-7.1-12.8c-.5-.9-1.4-1.5-2.5-1.5h-14.2c-1,0-2,.6-2.5,1.5l-7.1,12.8c-.5.9-.5,1.9,0,2.8l1.8,3.2h3.2l-2.6-4.6,7.1-12.8h14.2l7.1,12.8-2.6,4.6h3.2l1.8-3.2c.5-.9.5-1.9,0-2.8h.2Z"/>
              <polygon class="cls-1" points="1178.5 691.3 1164.4 691.3 1157.3 704.1 1159.8 708.7 1183.1 708.7 1185.6 704.1 1178.5 691.3"/>
              <path class="cls-3" d="M874.9,693.1c-1,0-1.9.5-2.5,1.4l-8.2,14.2h3.3l7.4-12.8,7.4,12.8h3.3l-8.2-14.2c-.5-.9-1.4-1.4-2.5-1.4Z"/>
              <polygon class="cls-1" points="867.5 708.7 882.3 708.7 874.9 695.9 867.5 708.7"/>
              <path class="cls-3" d="M1305.2,704.6c-.8,0-1.6.4-2.1,1-.7.8-.9,1.8-.5,2.8v.3h3.1l-.4-1.3,6.7,1.3h15.2l-21.3-4.1h-.7Z"/>
              <polygon class="cls-1" points="1305.7 708.7 1311.9 708.7 1305.2 707.4 1305.7 708.7"/>
            </g>
            <g>
              <path class="cls-3" d="M987.7,1198.7c-.4-1.2-1.5-2.1-2.7-2.1s-.5,0-.8,0l-24.5,7.1c-1.5.4-2.4,2-1.9,3.5l7.1,24.5c.4,1.2,1.5,2.1,2.7,2.1s.5,0,.8,0l24.5-7.1c1.5-.4,2.4-2,1.9-3.5l-7.1-24.5ZM967.5,1231.1l-7.1-24.5,24.5-7.1,7.1,24.5-24.5,7.1Z"/>
              <rect class="cls-1" x="964.2" y="1201.8" width="25.5" height="25.5" transform="translate(-298.5 318.6) rotate(-16.1)"/>
              <path class="cls-3" d="M1043.5,1034.5c-.9-.9-2.3-1-3.4-.3-.2,0-.4.3-.6.5l-17.3,18.7c-1.1,1.1-1,2.9.2,4l18.7,17.3c.9.9,2.3,1,3.4.3.2,0,.4-.3.6-.5l17.3-18.7c1.1-1.1,1-2.9-.2-4l-18.7-17.3h0ZM1043,1072.6l-18.7-17.3,17.3-18.7,18.7,17.3-17.3,18.7Z"/>
              <rect class="cls-1" x="1029.4" y="1042.1" width="25.5" height="25.5" transform="translate(-439.9 1102.8) rotate(-47.2)"/>
              <path class="cls-3" d="M1188.1,817.8l-2.3-25.4c0-.7-.4-1.4-1-1.9-.5-.4-1.2-.7-1.8-.7s-.2,0-.3,0l-25.4,2.3c-1.6,0-2.7,1.5-2.6,3.1l2.3,25.4c0,.7.4,1.4,1,1.9.5.4,1.2.7,1.8.7s.2,0,.3,0l25.4-2.3c1.6,0,2.7-1.5,2.6-3.1ZM1159.9,820.4l-2.3-25.4,25.4-2.3,2.3,25.4-25.4,2.3Z"/>
              <rect class="cls-1" x="1158.4" y="794.1" width="25.5" height="25.5" transform="translate(-68.3 109.5) rotate(-5.2)"/>
              <path class="cls-3" d="M1224.5,1144.1l-24.2-8.2c-.3,0-.6,0-.9,0s-.9,0-1.3.3c-.7.3-1.2.9-1.4,1.6l-8.2,24.2c-.5,1.5.3,3.1,1.8,3.6l24.2,8.2c.3,0,.6,0,.9,0s.9,0,1.3-.3c.7-.3,1.2-.9,1.4-1.6l8.2-24.2c.5-1.5-.3-3.1-1.8-3.6ZM1215.5,1171l-24.2-8.2,8.2-24.2,24.2,8.2-8.2,24.2Z"/>
              <rect class="cls-1" x="1195.4" y="1143.2" width="25.5" height="25.5" transform="translate(-274.1 1929.7) rotate(-71.3)"/>
              <path class="cls-3" d="M1090.7,1360h-25.5c-1.6,0-2.8,1.3-2.8,2.8v25.5c0,1.6,1.3,2.8,2.8,2.8h25.5c1.6,0,2.8-1.3,2.8-2.8v-25.5c0-1.6-1.3-2.8-2.8-2.8ZM1090.7,1388.4h-25.5v-25.5h25.5v25.5Z"/>
              <rect class="cls-1" x="1065.1" y="1362.8" width="25.5" height="25.5"/>
              <path class="cls-3" d="M782.7,767l24.6,6.9c.3,0,.5,0,.8,0,1.2,0,2.4-.8,2.7-2.1l6.9-24.6c.4-1.5-.5-3.1-2-3.5l-24.6-6.9c-.3,0-.5,0-.8,0-1.2,0-2.4.8-2.7,2.1l-6.9,24.6c-.4,1.5.5,3.1,2,3.5ZM790.4,739.7l24.6,6.9-6.9,24.6-24.6-6.9,6.9-24.6Z"/>
              <rect class="cls-1" x="786.1" y="741.9" width="25.5" height="25.5" transform="translate(-142.8 1321.1) rotate(-74.4)"/>
              <path class="cls-3" d="M830.2,1202.2l-25.1-4.5h-.5c-.6,0-1.1.2-1.6.5-.6.4-1,1.1-1.2,1.8l-4.5,25.1c-.3,1.5.8,3,2.3,3.3l25.1,4.5h.5c.6,0,1.1-.2,1.6-.5.6-.4,1-1.1,1.2-1.8l4.5-25.1c.3-1.5-.8-3-2.3-3.3ZM825.3,1230.1l-25.1-4.5,4.5-25.1,25.1,4.5-4.5,25.1Z"/>
              <rect class="cls-1" x="802.2" y="1202.6" width="25.5" height="25.5" transform="translate(-524.5 1804.5) rotate(-79.9)"/>
              <path class="cls-3" d="M1320.4,1337.3l-24.9-5.7h-.6c-1.3,0-2.5.9-2.8,2.2l-5.7,24.9c-.3,1.5.6,3,2.1,3.4l24.9,5.7h.6c1.3,0,2.5-.9,2.8-2.2l5.7-24.9c.3-1.5-.6-3-2.1-3.4ZM1314.1,1365l-24.9-5.7,5.7-24.9,24.9,5.7-5.7,24.9Z"/>
              <rect class="cls-1" x="1291.6" y="1336.9" width="25.5" height="25.5" transform="translate(-300.7 2322.5) rotate(-77.2)"/>
              <path class="cls-3" d="M1212.3,1024.6c-.4-.6-1.1-1-1.9-1.1h-.4c-.6,0-1.2.2-1.7.6l-20.5,15.2c-1.3.9-1.5,2.7-.6,4l15.2,20.5c.6.7,1.4,1.1,2.3,1.1s1.2-.2,1.7-.6l20.5-15.2c1.3-.9,1.5-2.7.6-4l-15.2-20.5ZM1204.8,1061.9l-15.2-20.5,20.5-15.2,15.2,20.5-20.5,15.2Z"/>
              <rect class="cls-1" x="1194.7" y="1030.4" width="25.5" height="25.5" transform="translate(-384.1 928.4) rotate(-36.7)"/>
              <path class="cls-3" d="M904.5,838.8c.6.7,1.4,1.1,2.3,1.1s1.2-.2,1.7-.6l20.5-15.2c1.3-.9,1.5-2.7.6-4l-15.2-20.5c-.6-.8-1.4-1.1-2.3-1.1s-1.2.2-1.7.6l-20.5,15.2c-1.3.9-1.5,2.7-.6,4l15.2,20.5ZM912.1,801.4l15.2,20.5-20.5,15.2-15.2-20.5,20.5-15.2Z"/>
              <rect class="cls-1" x="896.9" y="805.8" width="25.5" height="25.5" transform="translate(-308.6 703.8) rotate(-36.6)"/>
              <path class="cls-3" d="M711.1,971l5.2-25c.3-1.5-.7-3-2.2-3.4l-5.4-1.1v2.9l4.9,1-4.9,23.2v4.6c1.2-.2,2.2-1,2.4-2.2Z"/>
              <polygon class="cls-1" points="708.7 944.5 708.7 968.7 713.5 945.5 708.7 944.5"/>
              <path class="cls-3" d="M812,1073.3h-.6c-.8,0-1.5.3-2.1.9l-10.3,10.8c-.7.8-1,1.9-.6,2.9l4.9,14.1c.3.9,1.1,1.6,2.1,1.8h.6c.8,0,1.5-.3,2.1-.9l10.3-10.8c.7-.8,1-1.9.6-2.9l-4.9-14.1c-.3-.9-1.1-1.6-2.1-1.8ZM806,1101l-4.9-14.1,10.3-10.8,4.9,14.1-10.3,10.8Z"/>
              <polygon class="cls-1" points="801.1 1086.9 806 1101 816.3 1090.1 811.4 1076 801.1 1086.9"/>
              <path class="cls-3" d="M861.2,986.9c-.2,0-.3.3-.4.4-.5.6-.8,1.3-.7,2.1l1.2,14.9c0,1.1.7,2,1.7,2.4l13.7,5.8c.9.4,2,.3,2.8-.3.2,0,.3-.3.4-.4.5-.6.8-1.3.7-2.1l-1.2-14.9c0-1.1-.7-2-1.7-2.4l-13.7-5.8c-.9-.4-2-.3-2.8.3ZM877.8,1009.9l-13.7-5.8-1.2-14.9,13.7,5.8,1.2,14.9Z"/>
              <polygon class="cls-1" points="864.1 1004.1 877.8 1009.9 876.6 995 862.9 989.2 864.1 1004.1"/>
              <path class="cls-3" d="M938,1312.4h0l-14.9.5c-1.1,0-2,.7-2.5,1.6l-6.5,13.4c-.4.9-.4,1.9.2,2.8.5.8,1.4,1.3,2.4,1.3s0,0,0,0l14.9-.5c1.1,0,2-.7,2.5-1.6l6.5-13.4c.4-.9.4-1.9-.2-2.8-.5-.8-1.4-1.3-2.4-1.3ZM931.5,1328.7l-14.9.5,6.5-13.4,14.9-.5-6.5,13.4Z"/>
              <polygon class="cls-1" points="916.6 1329.2 931.5 1328.7 938 1315.3 923.1 1315.7 916.6 1329.2"/>
              <path class="cls-3" d="M1123.6,994.6l-11.5-9.5c-.5-.4-1.2-.6-1.8-.6s-.6,0-.9.2c-.9.3-1.6,1.1-1.8,2.1l-3.1,14.6c-.2,1,.2,2.1,1,2.8l11.5,9.5c.5.4,1.2.6,1.8.6s.6,0,.9-.2c.9-.3,1.6-1.1,1.8-2.1l3.1-14.6c.2-1-.2-2.1-1-2.8ZM1118.7,1011.4l-11.5-9.5,3.1-14.6,11.5,9.5-3.1,14.6Z"/>
              <polygon class="cls-1" points="1107.1 1001.9 1118.7 1011.4 1121.8 996.8 1110.2 987.3 1107.1 1001.9"/>
              <path class="cls-3" d="M1073.5,1171.7c.5,0,1,0,1.4-.4l13-7.4c.9-.5,1.5-1.5,1.4-2.6l-.5-14.9c0-1-.6-1.9-1.5-2.4-.4-.2-.9-.4-1.4-.4s-1,0-1.4.4l-13,7.4c-.9.5-1.5,1.5-1.4,2.6l.5,14.9c0,1,.6,1.9,1.5,2.4.4.2.9.4,1.4.4ZM1086,1146.5l.5,14.9-13,7.4-.5-14.9,13-7.4Z"/>
              <polygon class="cls-1" points="1086.5 1161.5 1086 1146.5 1073 1153.9 1073.5 1168.8 1086.5 1161.5"/>
              <path class="cls-3" d="M1129.5,1096.6c.4.3.8.5,1.3.6l14.7,2.3c1,.2,2.1-.3,2.7-1.1l8.8-12c.6-.8.7-1.8.3-2.8s-.5-.8-.9-1.1c-.4-.3-.8-.5-1.3-.6l-14.7-2.3c-1-.2-2.1.3-2.7,1.1l-8.8,12c-.6.8-.7,1.8-.3,2.8s.5.8.9,1.1ZM1154.9,1084.7l-8.8,12-14.7-2.3,8.8-12,14.7,2.3Z"/>
              <polygon class="cls-1" points="1146 1096.7 1154.9 1084.7 1140.1 1082.4 1131.3 1094.4 1146 1096.7"/>
              <path class="cls-3" d="M962.8,1151c.4.3.8.5,1.3.6l14.8,2.1c1,0,2.1-.3,2.7-1.2l8.7-12.1c.6-.8.7-1.9.3-2.8-.2-.5-.5-.8-.9-1.1-.4-.3-.8-.5-1.3-.6l-14.8-2.1c-1,0-2.1.3-2.7,1.2l-8.7,12.1c-.6.8-.7,1.9-.3,2.8.2.5.5.8.9,1.1ZM988,1138.7l-8.7,12.1-14.8-2.1,8.7-12.1,14.8,2.1Z"/>
              <polygon class="cls-1" points="979.3 1150.8 988 1138.7 973.2 1136.6 964.5 1148.7 979.3 1150.8"/>
              <path class="cls-3" d="M1327.8,1102l-14.9-.6h0c-1,0-2,.5-2.5,1.4l-7.4,13c-.5.9-.5,1.9,0,2.8s1.4,1.4,2.4,1.5l14.9.6h0c1,0,2-.5,2.5-1.4l7.4-13c.5-.9.5-1.9,0-2.8s-1.4-1.4-2.4-1.5ZM1320.2,1117.8l-14.9-.6,7.4-13,14.9.6-7.4,13Z"/>
              <polygon class="cls-1" points="1305.3 1117.2 1320.2 1117.8 1327.7 1104.8 1312.7 1104.2 1305.3 1117.2"/>
              <path class="cls-3" d="M1331.2,927.9c-.2-1-.8-1.8-1.8-2.2-.3,0-.7-.2-1-.2-.6,0-1.2.2-1.7.6l-11.9,9c-.8.6-1.3,1.7-1.1,2.7l2.5,14.7c.2,1,.8,1.8,1.8,2.2.3,0,.7.2,1,.2.6,0,1.2-.2,1.7-.6l11.9-9c.8-.6,1.3-1.7,1.1-2.7l-2.5-14.7ZM1319,952.1l-2.5-14.7,11.9-9,2.5,14.7-11.9,9Z"/>
              <polygon class="cls-1" points="1316.5 937.4 1319 952.1 1330.9 943.1 1328.4 928.4 1316.5 937.4"/>
              <path class="cls-3" d="M1311,1240.8c-.5-.5-1.2-.8-2-.8s-.6,0-.9,0l-14.2,4.7c-.9.3-1.6,1.1-1.9,2.1-.2,1,0,2,.8,2.7l10.7,10.4c.5.5,1.2.8,2,.8s.6,0,.9,0l14.2-4.7c.9-.3,1.6-1.1,1.9-2.1.2-1,0-2-.8-2.7l-10.7-10.4ZM1305.6,1257.9l-10.7-10.4,14.2-4.7,10.7,10.4-14.2,4.7Z"/>
              <polygon class="cls-1" points="1294.9 1247.6 1305.6 1257.9 1319.7 1253.2 1309 1242.8 1294.9 1247.6"/>
              <path class="cls-3" d="M1208,1235c0-.7-.5-1.4-1-1.9s-.5-.3-.8-.5l-13.9-5.4c-.9-.4-2-.2-2.8.4s-1.2,1.6-1.1,2.6l1.7,14.8c0,.7.5,1.4,1,1.9s.5.3.8.5l13.9,5.4c.9.4,2,.2,2.8-.4s1.2-1.6,1.1-2.6l-1.7-14.8ZM1193,1244.7l-1.7-14.8,13.9,5.4,1.7,14.8-13.9-5.4Z"/>
              <polygon class="cls-1" points="1191.3 1229.9 1193 1244.7 1206.9 1250.1 1205.2 1235.3 1191.3 1229.9"/>
              <path class="cls-3" d="M1204,1318.3c.5-.6.7-1.3.7-2s0-.6-.2-.9l-5.4-13.9c-.4-.9-1.2-1.6-2.1-1.8s-2,.2-2.6.9l-9.9,11.2c-.5.6-.7,1.3-.7,2s0,.6.2.9l5.4,13.9c.4.9,1.2,1.6,2.1,1.8,1,.2,2-.2,2.6-.9l9.9-11.2ZM1186.7,1313.7l9.9-11.2,5.4,13.9-9.9,11.2-5.4-13.9Z"/>
              <polygon class="cls-1" points="1196.5 1302.5 1186.7 1313.7 1192 1327.6 1201.9 1316.4 1196.5 1302.5"/>
              <path class="cls-3" d="M1072.5,848.8c.8-.7,1-1.8.7-2.8l-4.3-14.3c-.3-1-1-1.7-2-1.9h-.7c-.7,0-1.4.3-2,.8l-10.7,10.4c-.8.7-1,1.8-.7,2.8l4.3,14.3c.3,1,1,1.7,2,1.9h.7c.7,0,1.4-.3,2-.8l10.7-10.4ZM1055.5,842.8l10.7-10.4,4.3,14.3-10.7,10.4-4.3-14.3Z"/>
              <polygon class="cls-1" points="1066.2 832.4 1055.5 842.8 1059.8 857.1 1070.5 846.7 1066.2 832.4"/>
              <path class="cls-3" d="M977.7,878.8c0,1.1.4,2.1,1.2,2.7l12.4,8.3c.8.6,1.9.6,2.8.2.2,0,.4-.2.6-.4.6-.5.9-1.1,1-1.9l1.7-14.8c0-1.1-.4-2.1-1.2-2.7l-12.4-8.3c-.8-.6-1.9-.6-2.8-.2-.2,0-.4.2-.6.4-.6.5-.9,1.1-1,1.9l-1.7,14.8ZM994.6,872.6l-1.7,14.8-12.4-8.3,1.7-14.8,12.4,8.3Z"/>
              <polygon class="cls-1" points="992.9 887.4 994.6 872.6 982.2 864.3 980.5 879.1 992.9 887.4"/>
              <path class="cls-3" d="M797.6,896.3l-7.7-12.8c-.5-.8-1.4-1.4-2.4-1.4s-1.9.5-2.4,1.4l-7.7,12.8c-.5.9-.5,2,0,2.9l7.7,12.8c.5.8,1.4,1.4,2.4,1.4s1.9-.5,2.4-1.4l7.7-12.8c.5-.9.5-2,0-2.9ZM787.5,910.5l-7.7-12.8,7.7-12.8,7.7,12.8-7.7,12.8Z"/>
              <polygon class="cls-1" points="779.7 897.7 787.5 910.5 795.2 897.7 787.5 885 779.7 897.7"/>
              <path class="cls-3" d="M810,841.4l14.9,1.5c1,0,2-.3,2.5-1.1.6-.8.7-1.8.4-2.8l-5.6-13.8c-.4-1-1.3-1.7-2.4-1.8l-14.9-1.5c-1,0-2,.3-2.5,1.1-.6.8-.7,1.8-.4,2.8l5.6,13.8c.4,1,1.3,1.7,2.4,1.8ZM804.7,824.8l14.9,1.5,5.6,13.8-14.9-1.5-5.6-13.8Z"/>
              <polygon class="cls-1" points="819.6 826.2 804.7 824.8 810.3 838.6 825.1 840.1 819.6 826.2"/>
              <path class="cls-3" d="M1254.8,760.3c.5,0,1,0,1.5-.4l12.7-7.8c.8-.5,1.4-1.4,1.4-2.4s-.5-1.9-1.4-2.4l-12.8-7.7c-.4-.3-1-.4-1.5-.4s-1,0-1.5.4l-12.7,7.8c-.8.5-1.4,1.4-1.4,2.4s.5,1.9,1.4,2.4l12.8,7.7c.4.3,1,.4,1.5.4ZM1254.8,742l12.8,7.7-12.7,7.8-12.8-7.7,12.7-7.8Z"/>
              <polygon class="cls-1" points="1267.5 749.7 1254.8 742 1242 749.8 1254.8 757.5 1267.5 749.7"/>
              <path class="cls-3" d="M977,718.3c.4.2.8.2,1.2.2.6,0,1.1-.2,1.6-.5l12.3-8.5c.3-.2.6-.5.8-.9h-4.5l-10.2,7.1-.9-7.1h-2.9l.9,7.4c0,1,.8,1.8,1.7,2.2h0Z"/>
              <polygon class="cls-1" points="988.3 708.7 977.2 708.7 978.1 715.7 988.3 708.7"/>
              <path class="cls-3" d="M722.3,1230.2l5.3-13.9c.4-.9.2-2-.4-2.8-.5-.7-1.4-1.1-2.2-1.1s-.2,0-.3,0l-14.8,1.7c-.4,0-.8.2-1.2.4v6.3l1.5-3.8,14.8-1.7-5.3,13.9-11,1.2v2.9l11.3-1.3c1,0,1.9-.8,2.3-1.8h0Z"/>
              <polygon class="cls-1" points="725 1215.3 710.1 1217 708.7 1220.8 708.7 1230.5 719.6 1229.2 725 1215.3"/>
              <path class="cls-3" d="M722.8,868.1c.9-.5,1.4-1.4,1.4-2.4s-.5-1.9-1.3-2.5l-12.5-8.1c-.5-.3-1-.5-1.5-.5s-.2,0-.2,0v3h.2c0,0,12.5,8,12.5,8l-12.8,7.2v3c.4,0,.8,0,1.2-.4l13-7.3h0Z"/>
              <polygon class="cls-1" points="708.9 857.5 708.7 857.7 708.7 872.9 721.4 865.7 708.9 857.5"/>
              <path class="cls-3" d="M714.9,741.7l-3-14.6c-.2-1-.9-1.8-1.8-2.1-.3,0-.6-.2-1-.2h-.4v3.1l.4-.3,3,14.6-3.4,2.8v3.6l5.2-4.2c.8-.7,1.2-1.7,1-2.8h0Z"/>
              <polygon class="cls-1" points="709.1 727.7 708.7 728 708.7 745.1 712.1 742.3 709.1 727.7"/>
              <path class="cls-3" d="M1016.9,778.1l3.7-14.1c.2-.9,0-2-.7-2.7l-10.1-10.6c-.5-.6-1.3-.9-2.1-.9s-.5,0-.7,0l-13.7,3.6c-1,.3-1.8,1-2,2l-3.7,14.1c-.2.9,0,2,.7,2.7l10.1,10.6c.5.6,1.3.9,2.1.9s.5,0,.7,0l13.7-3.6c1-.3,1.8-1,2-2ZM1014.2,777.4l-13.7,3.6-10.1-10.6,3.7-14.1,13.7-3.6,10.1,10.6-3.7,14.1Z"/>
              <polygon class="cls-1" points="1007.8 752.7 994.1 756.2 990.4 770.3 1000.5 780.9 1014.2 777.4 1017.9 763.2 1007.8 752.7"/>
              <path class="cls-3" d="M1164.4,719.7h14.2c1,0,2-.6,2.5-1.5l5.3-9.5h-3.2l-4.5,8.2h-14.2l-4.5-8.2h-3.2l5.3,9.5c.5.9,1.4,1.5,2.5,1.5h-.2Z"/>
              <polygon class="cls-1" points="1178.5 716.8 1183.1 708.7 1159.8 708.7 1164.4 716.8 1178.5 716.8"/>
              <path class="cls-3" d="M710.3,1102.6l7.1-12.8c.5-.9.5-1.9,0-2.8l-7.1-12.8c-.4-.6-.9-1.1-1.6-1.3v4.3l6.2,11.2-6.2,11.2v4.3c.7-.2,1.2-.7,1.6-1.3h0Z"/>
              <polygon class="cls-1" points="708.7 1077.3 708.7 1099.7 714.9 1088.5 708.7 1077.3"/>
              <path class="cls-3" d="M826.7,1323.6c-.3-1-1.2-1.7-2.2-1.8l-14-2.4h-.5c-.9,0-1.7.4-2.2,1.1l-9.1,11.4c-.6.8-.8,1.8-.5,2.7l4.9,13.8c.3,1,1.2,1.7,2.2,1.8l14,2.4h.5c.9,0,1.7-.4,2.2-1.1l9.1-11.4c.6-.8.8-1.8.5-2.7l-4.9-13.8ZM819.8,1349.7l-14-2.4-4.9-13.8,9.1-11.4,14,2.4,4.9,13.8-9.1,11.4Z"/>
              <polygon class="cls-1" points="810.1 1322.2 801 1333.6 805.8 1347.4 819.8 1349.7 828.9 1338.3 824 1324.6 810.1 1322.2"/>
              <path class="cls-3" d="M898.9,1251.5c-.3-1-1.2-1.7-2.2-1.8l-14-2.4h-.5c-.9,0-1.7.4-2.2,1.1l-9.1,11.4c-.6.8-.8,1.8-.5,2.7l4.9,13.8c.3,1,1.2,1.7,2.2,1.8l14,2.4h.5c.9,0,1.7-.4,2.2-1.1l9.1-11.4c.6-.8.8-1.8.5-2.7l-4.9-13.8ZM892,1277.6l-14-2.4-4.9-13.8,9.1-11.4,14,2.4,4.9,13.8-9.1,11.4Z"/>
              <polygon class="cls-1" points="882.2 1250.1 873.1 1261.5 878 1275.2 892 1277.6 901.1 1266.2 896.2 1252.4 882.2 1250.1"/>
              <path class="cls-3" d="M1035.1,1306.7c.3-1,0-2.1-.7-2.8l-9.8-10.2c0,0-.2-.2-.4-.3-.7-.5-1.6-.7-2.4-.5l-14.1,3.8c-.9.3-1.7,1-2,1.9l-4.3,14c-.3,1,0,2.1.7,2.8l9.8,10.2c0,0,.2.2.4.3.7.5,1.6.7,2.4.5l14.1-3.8c.9-.3,1.7-1,2-1.9l4.3-14h0ZM1014,1323.5l-9.8-10.2,4.3-14,14.1-3.8,9.8,10.2-4.3,14-14.1,3.8Z"/>
              <polygon class="cls-1" points="1022.6 1295.6 1008.5 1299.4 1004.2 1313.3 1014 1323.5 1028.1 1319.8 1032.4 1305.8 1022.6 1295.6"/>
              <path class="cls-3" d="M894.5,944.6c.7,0,1.4-.3,2-.8l10.6-10c.7-.7,1-1.7.8-2.6l-2.9-14.3c-.2-1-.9-1.8-1.9-2.1l-13.5-4.3c-.3,0-.6,0-.9,0-.7,0-1.4.3-2,.8l-10.6,10c-.7.7-1,1.7-.8,2.6l2.9,14.3c.2,1,.9,1.8,1.9,2.1l13.5,4.3c.3,0,.6,0,.9,0ZM878.1,923.3l10.6-10,13.5,4.3,2.9,14.3-10.6,10-13.5-4.3-2.9-14.3Z"/>
              <polygon class="cls-1" points="905.1 931.8 902.2 917.5 888.7 913.2 878.1 923.3 881 937.5 894.5 941.8 905.1 931.8"/>
              <path class="cls-3" d="M1281.6,882.7l2-14.5c0-1-.2-1.9-1-2.6l-11.2-9.3c-.5-.4-1.2-.7-1.8-.7s-.7,0-1,.2l-13.2,5.1c-1,.4-1.6,1.2-1.8,2.3l-2,14.5c0,1,.2,1.9,1,2.6l11.2,9.3c.5.4,1.2.7,1.8.7s.7,0,1-.2l13.2-5.1c1-.4,1.6-1.2,1.8-2.3ZM1265.5,887.5l-11.2-9.3,2-14.5,13.2-5.1,11.2,9.3-2,14.5-13.2,5.1Z"/>
              <polygon class="cls-1" points="1269.5 858.5 1256.3 863.7 1254.3 878.1 1265.5 887.5 1278.7 882.3 1280.8 867.9 1269.5 858.5"/>
              <path class="cls-3" d="M914.7,1137.9l7.1-12.8c.5-.9.5-1.9,0-2.8l-7.1-12.8c-.5-.9-1.4-1.5-2.5-1.5h-14.2c-1,0-2,.6-2.5,1.5l-7.1,12.8c-.5.9-.5,1.9,0,2.8l7.1,12.8c.5.9,1.4,1.5,2.5,1.5h14.2c1,0,2-.6,2.5-1.5ZM898,1136.5l-7.1-12.8,7.1-12.8h14.2l7.1,12.8-7.1,12.8h-14.2Z"/>
              <polygon class="cls-1" points="912.2 1111 898 1111 891 1123.7 898 1136.5 912.2 1136.5 919.3 1123.7 912.2 1111"/>
              <path class="cls-3" d="M1042.9,942.2c-.4-.9-1.3-1.6-2.3-1.7l-14.1-1.4h-.3c-.9,0-1.8.5-2.3,1.2l-8.3,12c-.6.8-.7,1.8-.3,2.7l5.8,13.4c.4.9,1.3,1.6,2.3,1.7l14.1,1.4h.3c.9,0,1.8-.5,2.3-1.2l8.3-12c.6-.8.7-1.8.3-2.7l-5.8-13.4h0ZM1037.8,968.7l-14.1-1.4-5.8-13.4,8.3-12,14.1,1.4,5.8,13.4-8.3,12Z"/>
              <polygon class="cls-1" points="1026.2 942 1017.9 954 1023.7 967.4 1037.8 968.7 1046.1 956.7 1040.3 943.3 1026.2 942"/>
              <path class="cls-3" d="M1100.8,1229.8c-.5-.3-1-.5-1.5-.5s-.9,0-1.3.3l-26.3,13.3c-.9.5-1.5,1.4-1.5,2.4s.4,2,1.3,2.5l24.7,16.1c.5.3,1,.5,1.5.5s.9,0,1.3-.3c.9-.5,1.5-1.4,1.5-2.4l1.6-29.4c0-1-.4-2-1.3-2.5h0ZM1097.7,1261.6l-24.7-16.1,26.3-13.3-1.6,29.4h0Z"/>
              <polygon class="cls-1" points="1097.7 1261.6 1099.3 1232.2 1073 1245.5 1097.7 1261.6"/>
              <path class="cls-3" d="M1077.9,752.6h.6l28.8-6.2c1-.2,1.8-.9,2.1-1.9.3-1,0-2-.6-2.8l-19.7-21.9c-.5-.6-1.3-.9-2.1-.9s-.4,0-.6,0c-1,.2-1.8.9-2.1,1.9l-9.1,28c-.3,1,0,2,.6,2.8.5.6,1.3.9,2.1.9h0ZM1087,721.7l19.7,21.9-28.8,6.2,9.1-28h0Z"/>
              <polygon class="cls-1" points="1087 721.7 1077.9 749.7 1106.7 743.6 1087 721.7"/>
              <path class="cls-3" d="M1323.7,825.8c.3,0,.5,0,.8,0l28.2-8.4c1-.3,1.7-1.1,1.9-2.1.2-1,0-2-.8-2.7l-21.4-20.2c-.5-.5-1.2-.8-1.9-.8s-.5,0-.8,0c-1,.3-1.7,1.1-1.9,2.1l-6.8,28.7c-.2,1,0,2,.8,2.7.5.5,1.2.8,1.9.8h0ZM1330.5,794.3l21.4,20.2-28.2,8.4,6.8-28.7h0Z"/>
              <polygon class="cls-1" points="1330.5 794.3 1323.7 822.9 1351.9 814.5 1330.5 794.3"/>
              <path class="cls-3" d="M1157.8,898.8c-.5-.7-1.4-1.1-2.2-1.1s-.3,0-.4,0c-1,0-1.9.8-2.2,1.7l-11.2,27.2c-.4.9-.2,2,.4,2.8.5.7,1.4,1.1,2.2,1.1s.3,0,.4,0l29.2-3.9c1,0,1.9-.8,2.2-1.7.4-.9.2-2-.4-2.8l-18-23.3ZM1144.4,927.8l11.2-27.2,18,23.3-29.2,3.9Z"/>
              <polygon class="cls-1" points="1144.4 927.8 1173.6 923.9 1155.6 900.6 1144.4 927.8"/>
              <path class="cls-3" d="M1288.9,1029.4h.4c.9,0,1.7-.4,2.2-1.1l18-23.3c.6-.8.8-1.9.4-2.8-.4-.9-1.2-1.6-2.2-1.7l-29.2-4h-.4c-.9,0-1.7.4-2.2,1.1-.6.8-.8,1.9-.4,2.8l11.1,27.3c.4.9,1.2,1.6,2.2,1.7h0ZM1307.3,1003.3l-18,23.3-11.1-27.3,29.2,4h0Z"/>
              <polygon class="cls-1" points="1307.3 1003.3 1278.1 999.3 1289.2 1026.6 1307.3 1003.3"/>
              <path class="cls-3" d="M715.6,1349.1c-.5-.9-1.4-1.5-2.4-1.5,0,0-1.8,0-4.6,0v2.8h4.5c0,0-4.5,7.4-4.5,7.4v5.4l6.9-11.3c.5-.9.6-1.9,0-2.8h0Z"/>
              <polygon class="cls-1" points="708.7 1350.4 708.7 1357.8 713.1 1350.5 708.7 1350.4"/>
              <path class="cls-3" d="M1397.2,937.4c-1.3,0-2.5.9-2.8,2.3l-5.2,25c-.2.7,0,1.5.4,2.1s1.1,1.1,1.8,1.2l25,5.2h1v-4.6l-.4,1.8-25-5.2,5.2-25,20.1,4.2v-2.9l-19.5-4.1h-.6Z"/>
              <polygon class="cls-1" points="1392 965.2 1417 970.5 1417.3 968.7 1417.3 944.5 1397.2 940.3 1392 965.2"/>
              <path class="cls-3" d="M1416.1,1216l-5.3,13.9c-.4.9-.2,2,.4,2.8.5.7,1.4,1.1,2.2,1.1s.2,0,.3,0l3.6-.4v-2.9l-3.9.4,3.9-10.1v-6.3c-.5.3-.9.8-1.2,1.4h0Z"/>
              <polygon class="cls-1" points="1417.3 1230.5 1417.3 1220.8 1413.4 1230.9 1417.3 1230.5"/>
              <path class="cls-3" d="M1403.2,862.4c-.9.5-1.4,1.4-1.4,2.4s.5,1.9,1.3,2.5l12.5,8.1c.5.3,1,.5,1.5.5s.2,0,.2,0v-3h-.2c0,0-12.5-8-12.5-8l12.7-7.2v-3c-.4,0-.8,0-1.2.4l-13,7.3h0Z"/>
              <polygon class="cls-1" points="1417.1 873 1417.3 872.9 1417.3 857.7 1404.6 864.9 1417.1 873"/>
              <path class="cls-3" d="M1404.4,734.9c-.8.7-1.2,1.7-1,2.8l3,14.6c.2,1,.9,1.8,1.8,2.1.3,0,.6.2,1,.2.6,0,1.3-.2,1.8-.6l6.4-5.2v-3.6l-8.2,6.6-3-14.6,11.2-9.1v-3.1c-.5,0-1,.3-1.4.6l-11.6,9.4h0Z"/>
              <polygon class="cls-1" points="1409.1 751.7 1417.3 745.1 1417.3 728 1406.2 737.1 1409.1 751.7"/>
              <path class="cls-3" d="M1402.3,1072.9c-1,0-2,.6-2.5,1.5l-7.1,12.8c-.5.9-.5,1.9,0,2.8l7.1,12.8c.5.9,1.4,1.5,2.5,1.5h14.2c.3,0,.6,0,.9,0v-4.3l-.9,1.6h-14.2l-7.1-12.8,7.1-12.8h14.2l.9,1.6v-4.3c-.3,0-.6,0-.9,0h-14.2v-.2Z"/>
              <polygon class="cls-1" points="1402.3 1075.7 1395.2 1088.5 1402.3 1101.3 1416.4 1101.3 1417.3 1099.7 1417.3 1077.3 1416.4 1075.7 1402.3 1075.7"/>
              <path class="cls-3" d="M1389.9,1348.2c-.5.9-.6,1.9,0,2.8l14.1,25.9c.5.9,1.4,1.5,2.4,1.5h0c1,0,1.9-.5,2.4-1.4l8.5-13.9v-5.4l-10.9,17.8-14.1-25.9,25,.6v-2.8c-8.3-.2-24.9-.6-25-.6-1,0-1.9.5-2.4,1.4Z"/>
              <polygon class="cls-1" points="1406.4 1375.6 1417.3 1357.8 1417.3 1350.4 1392.4 1349.7 1406.4 1375.6"/>
              <path class="cls-3" d="M1360.9,1152.6c-.5-.8-1.4-1.2-2.3-1.2s-.2,0-.3,0c-1,0-1.9.7-2.3,1.6l-12.4,26.7c-.4.9-.3,2,.3,2.8.5.8,1.4,1.2,2.3,1.2s.2,0,.3,0l29.3-2.6c1,0,1.9-.7,2.3-1.6s.3-2-.3-2.8l-17-24.1h0ZM1346.2,1180.9l12.4-26.7,17,24.1-29.3,2.6h0Z"/>
              <polygon class="cls-1" points="1346.2 1180.9 1375.5 1178.3 1358.5 1154.2 1346.2 1180.9"/>
              <path class="cls-3" d="M949.8,1014.5c0-1-.8-1.9-1.7-2.3-.4-.2-.7-.2-1.1-.2-.6,0-1.2.2-1.7.6l-23.5,17.8c-.8.6-1.2,1.6-1.1,2.6,0,1,.8,1.9,1.7,2.3l27.1,11.5c.4.2.7.2,1.1.2.6,0,1.2-.2,1.7-.6.8-.6,1.2-1.6,1.1-2.6l-3.6-29.2h0ZM923.5,1032.6l23.5-17.8,3.6,29.2-27.1-11.5h0Z"/>
              <polygon class="cls-1" points="923.5 1032.6 950.6 1044.1 947 1014.9 923.5 1032.6"/>
              <path class="cls-3" d="M800.8,1001.4c.2-1,0-2-.8-2.7l-21.5-20.1c-.5-.5-1.2-.8-1.9-.8s-.6,0-.8,0c-1,.3-1.7,1.1-1.9,2.1l-6.7,28.7c-.2,1,0,2,.8,2.7.5.5,1.2.8,1.9.8s.6,0,.8,0l28.2-8.6c1-.3,1.7-1.1,1.9-2.1h0ZM769.9,1009.3l6.7-28.7,21.5,20.1-28.2,8.6h0Z"/>
              <polygon class="cls-1" points="769.9 1009.3 798 1000.8 776.5 980.7 769.9 1009.3"/>
              <path class="cls-3" d="M857.7,722.8c.5.9,1.4,1.4,2.5,1.4h29.5c1,0,1.9-.5,2.5-1.4.5-.9.5-2,0-2.8l-6.5-11.3h-3.3l7.4,12.8h-29.5l7.4-12.8h-3.3l-6.5,11.3c-.5.9-.5,2,0,2.8h-.2Z"/>
              <polygon class="cls-1" points="889.6 721.4 882.3 708.7 867.5 708.7 860.2 721.4 889.6 721.4"/>
              <path class="cls-3" d="M1314.4,738h.5c.8,0,1.6-.4,2.1-1l19.2-22.3c.7-.8.9-1.8.5-2.8-.3-1-1.2-1.7-2.1-1.9l-7.6-1.4h-15.2l22.2,4.2-19.2,22.3-9.3-26.5h-3l9.6,27.5c.3,1,1.2,1.7,2.1,1.8h.2Z"/>
              <polygon class="cls-1" points="1334.2 712.9 1311.9 708.7 1305.7 708.7 1314.9 735.2 1334.2 712.9"/>
              <path class="cls-3" d="M993.2,1415.5l-1.9-14.8c0-1-.8-1.8-1.7-2.2-.4-.2-.8-.2-1.2-.2-.6,0-1.1.2-1.6.5l-12.3,8.5c-.9.6-1.3,1.6-1.2,2.7l.9,7.4h2.9l-1-7.7,12.3-8.5,1.9,14.8-2.1,1.4h4.5c.3-.5.4-1.2.4-1.8h0Z"/>
              <polygon class="cls-1" points="988.5 1401.1 976.3 1409.6 977.2 1417.3 988.3 1417.3 990.4 1415.9 988.5 1401.1"/>
              <path class="cls-3" d="M1188.1,1411.4l-7.1-12.8c-.5-.9-1.4-1.5-2.5-1.5h-14.2c-1,0-2,.6-2.5,1.5l-7.1,12.8c-.5.9-.5,1.9,0,2.8l1.8,3.2h3.2l-2.6-4.6,7.1-12.8h14.2l7.1,12.8-2.6,4.6h3.2l1.8-3.2c.5-.9.5-1.9,0-2.8h.2Z"/>
              <polygon class="cls-1" points="1178.5 1400 1164.4 1400 1157.3 1412.7 1159.8 1417.3 1183.1 1417.3 1185.6 1412.7 1178.5 1400"/>
              <path class="cls-3" d="M874.9,1401.7c-1,0-1.9.5-2.5,1.4l-8.2,14.2h3.3l7.4-12.8,7.4,12.8h3.3l-8.2-14.2c-.5-.9-1.4-1.4-2.5-1.4Z"/>
              <polygon class="cls-1" points="867.5 1417.3 882.3 1417.3 874.9 1404.6 867.5 1417.3"/>
              <path class="cls-3" d="M1305.2,1413.2c-.8,0-1.6.4-2.1,1-.7.8-.9,1.8-.5,2.8v.3h3.1l-.4-1.3,6.7,1.3h15.2l-21.3-4.1h-.7Z"/>
              <polygon class="cls-1" points="1305.7 1417.3 1311.9 1417.3 1305.2 1416.1 1305.7 1417.3"/>
            </g>
            <g>
              <path class="cls-3" d="M279.1,1198.7c-.4-1.2-1.5-2.1-2.7-2.1s-.5,0-.8,0l-24.5,7.1c-1.5.4-2.4,2-1.9,3.5l7.1,24.5c.4,1.2,1.5,2.1,2.7,2.1s.5,0,.8,0l24.5-7.1c1.5-.4,2.4-2,1.9-3.5l-7.1-24.5ZM258.9,1231.1l-7.1-24.5,24.5-7.1,7.1,24.5-24.5,7.1Z"/>
              <rect class="cls-1" x="255.6" y="1202.2" width="25.5" height="25.5" transform="translate(-326.4 122.1) rotate(-16.1)"/>
              <path class="cls-3" d="M334.8,1034.5c-.9-.9-2.3-1-3.4-.3-.2,0-.4.3-.6.5l-17.3,18.7c-1.1,1.1-1,2.9.2,4l18.7,17.3c.9.9,2.3,1,3.4.3.2,0,.4-.3.6-.5l17.3-18.7c1.1-1.1,1-2.9-.2-4l-18.7-17.3ZM334.3,1072.6l-18.7-17.3,17.3-18.7,18.7,17.3-17.3,18.7Z"/>
              <rect class="cls-1" x="320.7" y="1041.9" width="25.5" height="25.5" transform="translate(-666.9 582.8) rotate(-47.2)"/>
              <path class="cls-3" d="M479.5,817.8l-2.3-25.4c0-.7-.4-1.4-1-1.9-.5-.4-1.2-.7-1.8-.7s-.2,0-.3,0l-25.4,2.3c-1.6,0-2.7,1.5-2.6,3.1l2.3,25.4c0,.7.4,1.4,1,1.9.5.4,1.2.7,1.8.7s.2,0,.3,0l25.4-2.3c1.6,0,2.7-1.5,2.6-3.1ZM451.2,820.4l-2.3-25.4,25.4-2.3,2.3,25.4-25.4,2.3Z"/>
              <rect class="cls-1" x="449.8" y="794" width="25.5" height="25.5" transform="translate(-71.2 45.2) rotate(-5.2)"/>
              <path class="cls-3" d="M515.9,1144.1l-24.2-8.2c-.3,0-.6,0-.9,0s-.9,0-1.3.3c-.7.3-1.2.9-1.4,1.6l-8.2,24.2c-.5,1.5.3,3.1,1.8,3.6l24.2,8.2c.3,0,.6,0,.9,0s.9,0,1.3-.3c.7-.3,1.2-.9,1.4-1.6l8.2-24.2c.5-1.5-.3-3.1-1.8-3.6ZM506.8,1171l-24.2-8.2,8.2-24.2,24.2,8.2-8.2,24.2Z"/>
              <rect class="cls-1" x="486.2" y="1143.1" width="25.5" height="25.5" transform="translate(-755.9 1257.9) rotate(-71.3)"/>
              <path class="cls-3" d="M382,1360h-25.5c-1.6,0-2.8,1.3-2.8,2.8v25.5c0,1.6,1.3,2.8,2.8,2.8h25.5c1.6,0,2.8-1.3,2.8-2.8v-25.5c0-1.6-1.3-2.8-2.8-2.8ZM382,1388.4h-25.5v-25.5h25.5v25.5Z"/>
              <rect class="cls-1" x="356.5" y="1362.8" width="25.5" height="25.5"/>
              <path class="cls-3" d="M74.1,767l24.6,6.9c.3,0,.5,0,.8,0,1.2,0,2.4-.8,2.7-2.1l6.9-24.6c.4-1.5-.5-3.1-2-3.5l-24.6-6.9c-.3,0-.5,0-.8,0-1.2,0-2.4.8-2.7,2.1l-6.9,24.6c-.4,1.5.5,3.1,2,3.5ZM81.7,739.7l24.6,6.9-6.9,24.6-24.6-6.9,6.9-24.6Z"/>
              <rect class="cls-1" x="77.9" y="742.1" width="25.5" height="25.5" transform="translate(-660.7 639.2) rotate(-74.4)"/>
              <path class="cls-3" d="M121.6,1202.2l-25.1-4.5h-.5c-.6,0-1.1.2-1.6.5-.6.4-1,1.1-1.2,1.8l-4.5,25.1c-.3,1.5.8,3,2.3,3.3l25.1,4.5h.5c.6,0,1.1-.2,1.6-.5.6-.4,1-1.1,1.2-1.8l4.5-25.1c.3-1.5-.8-3-2.3-3.3ZM116.6,1230.1l-25.1-4.5,4.5-25.1,25.1,4.5-4.5,25.1Z"/>
              <rect class="cls-1" x="93.5" y="1202.6" width="25.5" height="25.5" transform="translate(-1108.9 1106.8) rotate(-79.9)"/>
              <path class="cls-3" d="M611.7,1337.3l-24.9-5.7h-.6c-1.3,0-2.5.9-2.8,2.2l-5.7,24.9c-.3,1.5.6,3,2.1,3.4l24.9,5.7h.6c1.3,0,2.5-.9,2.8-2.2l5.7-24.9c.3-1.5-.6-3-2.1-3.4ZM605.4,1365l-24.9-5.7,5.7-24.9,24.9,5.7-5.7,24.9Z"/>
              <rect class="cls-1" x="582.9" y="1336.9" width="25.5" height="25.5" transform="translate(-852.4 1631.6) rotate(-77.2)"/>
              <path class="cls-3" d="M503.7,1024.6c-.4-.6-1.1-1-1.9-1.1h-.4c-.6,0-1.2.2-1.7.6l-20.5,15.2c-1.3.9-1.5,2.7-.6,4l15.2,20.5c.6.7,1.4,1.1,2.3,1.1s1.2-.2,1.7-.6l20.5-15.2c1.3-.9,1.5-2.7.6-4l-15.2-20.5ZM496.2,1061.9l-15.2-20.5,20.5-15.2,15.2,20.5-20.5,15.2Z"/>
              <rect class="cls-1" x="486.3" y="1030.9" width="25.5" height="25.5" transform="translate(-524.8 505.1) rotate(-36.7)"/>
              <path class="cls-3" d="M195.9,838.8c.6.7,1.4,1.1,2.3,1.1s1.2-.2,1.7-.6l20.5-15.2c1.3-.9,1.5-2.7.6-4l-15.2-20.5c-.6-.8-1.4-1.1-2.3-1.1s-1.2.2-1.7.6l-20.5,15.2c-1.3.9-1.5,2.7-.6,4l15.2,20.5ZM203.4,801.4l15.2,20.5-20.5,15.2-15.2-20.5,20.5-15.2Z"/>
              <rect class="cls-1" x="188.4" y="806.1" width="25.5" height="25.5" transform="translate(-448.6 281.4) rotate(-36.6)"/>
              <path class="cls-3" d="M2.4,971l5.2-25c.3-1.5-.7-3-2.2-3.4L0,941.5v2.9l4.9,1L0,968.6v4.6c1.2-.2,2.2-1,2.4-2.2Z"/>
              <polygon class="cls-1" points="0 944.5 0 968.7 4.9 945.5 0 944.5"/>
              <path class="cls-3" d="M103.3,1073.3h-.6c-.8,0-1.5.3-2.1.9l-10.3,10.8c-.7.8-1,1.9-.6,2.9l4.9,14.1c.3.9,1.1,1.6,2.1,1.8h.6c.8,0,1.5-.3,2.1-.9l10.3-10.8c.7-.8,1-1.9.6-2.9l-4.9-14.1c-.3-.9-1.1-1.6-2.1-1.8ZM97.4,1101l-4.9-14.1,10.3-10.8,4.9,14.1-10.3,10.8Z"/>
              <polygon class="cls-1" points="92.5 1086.9 97.4 1101 107.6 1090.1 102.7 1076 92.5 1086.9"/>
              <path class="cls-3" d="M152.6,986.9c-.2,0-.3.3-.4.4-.5.6-.8,1.3-.7,2.1l1.2,14.9c0,1.1.7,2,1.7,2.4l13.7,5.8c.9.4,2,.3,2.8-.3.2,0,.3-.3.4-.4.5-.6.8-1.3.7-2.1l-1.2-14.9c0-1.1-.7-2-1.7-2.4l-13.7-5.8c-.9-.4-2-.3-2.8.3ZM169.2,1009.9l-13.7-5.8-1.2-14.9,13.8,5.8,1.2,14.9h-.1Z"/>
              <polygon class="cls-1" points="155.4 1004.1 169.2 1009.9 168 995 154.2 989.2 155.4 1004.1"/>
              <path class="cls-3" d="M229.3,1312.4h0l-14.9.5c-1.1,0-2,.7-2.5,1.6l-6.5,13.4c-.4.9-.4,1.9.2,2.8.5.8,1.4,1.3,2.4,1.3s0,0,0,0l14.9-.5c1.1,0,2-.7,2.5-1.6l6.5-13.4c.4-.9.4-1.9-.2-2.8-.5-.8-1.4-1.3-2.4-1.3ZM222.9,1328.7l-14.9.5,6.5-13.4,14.9-.5-6.5,13.4Z"/>
              <polygon class="cls-1" points="207.9 1329.2 222.9 1328.7 229.3 1315.3 214.4 1315.7 207.9 1329.2"/>
              <path class="cls-3" d="M414.9,994.6l-11.5-9.5c-.5-.4-1.2-.6-1.8-.6s-.6,0-.9.2c-.9.3-1.6,1.1-1.8,2.1l-3.1,14.6c-.2,1,.2,2.1,1,2.8l11.5,9.5c.5.4,1.2.6,1.8.6s.6,0,.9-.2c.9-.3,1.6-1.1,1.8-2.1l3.1-14.6c.2-1-.2-2.1-1-2.8ZM410,1011.4l-11.5-9.5,3.1-14.6,11.5,9.5-3.1,14.6Z"/>
              <polygon class="cls-1" points="398.5 1001.9 410 1011.4 413.1 996.8 401.6 987.3 398.5 1001.9"/>
              <path class="cls-3" d="M364.9,1171.7c.5,0,1,0,1.4-.4l13-7.4c.9-.5,1.5-1.5,1.4-2.6l-.5-14.9c0-1-.6-1.9-1.5-2.4-.4-.2-.9-.4-1.4-.4s-1,0-1.4.4l-13,7.4c-.9.5-1.5,1.5-1.4,2.6l.5,14.9c0,1,.6,1.9,1.5,2.4.4.2.9.4,1.4.4ZM377.3,1146.5l.5,14.9-13,7.4-.5-14.9,13-7.4Z"/>
              <polygon class="cls-1" points="377.9 1161.5 377.3 1146.5 364.3 1153.9 364.9 1168.8 377.9 1161.5"/>
              <path class="cls-3" d="M420.9,1096.6c.4.3.8.5,1.3.6l14.7,2.3c1,.2,2.1-.3,2.7-1.1l8.8-12c.6-.8.7-1.8.3-2.8s-.5-.8-.9-1.1c-.4-.3-.8-.5-1.3-.6l-14.7-2.3c-1-.2-2.1.3-2.7,1.1l-8.8,12c-.6.8-.7,1.8-.3,2.8s.5.8.9,1.1ZM446.2,1084.7l-8.8,12-14.7-2.3,8.8-12,14.7,2.3Z"/>
              <polygon class="cls-1" points="437.4 1096.7 446.2 1084.7 431.5 1082.4 422.6 1094.4 437.4 1096.7"/>
              <path class="cls-3" d="M254.2,1151c.4.3.8.5,1.3.6l14.8,2.1c1,0,2.1-.3,2.7-1.2l8.7-12.1c.6-.8.7-1.9.3-2.8-.2-.5-.5-.8-.9-1.1-.4-.3-.8-.5-1.3-.6l-14.8-2.1c-1,0-2.1.3-2.7,1.2l-8.7,12.1c-.6.8-.7,1.9-.3,2.8.2.5.5.8.9,1.1h0ZM279.3,1138.7l-8.7,12.1-14.8-2.1,8.7-12.1,14.8,2.1h0Z"/>
              <polygon class="cls-1" points="270.7 1150.8 279.3 1138.7 264.6 1136.6 255.9 1148.7 270.7 1150.8"/>
              <path class="cls-3" d="M619.1,1102l-14.9-.6h0c-1,0-2,.5-2.5,1.4l-7.4,13c-.5.9-.5,1.9,0,2.8s1.4,1.4,2.4,1.5l14.9.6h0c1,0,2-.5,2.5-1.4l7.4-13c.5-.9.5-1.9,0-2.8s-1.4-1.4-2.4-1.5ZM611.6,1117.8l-14.9-.6,7.4-13,14.9.6-7.4,13Z"/>
              <polygon class="cls-1" points="596.7 1117.2 611.6 1117.8 619 1104.8 604.1 1104.2 596.7 1117.2"/>
              <path class="cls-3" d="M622.5,927.9c-.2-1-.8-1.8-1.8-2.2-.3,0-.7-.2-1-.2-.6,0-1.2.2-1.7.6l-11.9,9c-.8.6-1.3,1.7-1.1,2.7l2.5,14.7c.2,1,.8,1.8,1.8,2.2.3,0,.7.2,1,.2.6,0,1.2-.2,1.7-.6l11.9-9c.8-.6,1.3-1.7,1.1-2.7l-2.5-14.7ZM610.4,952.1l-2.5-14.7,11.9-9,2.5,14.7-11.9,9Z"/>
              <polygon class="cls-1" points="607.8 937.4 610.4 952.1 622.3 943.1 619.7 928.4 607.8 937.4"/>
              <path class="cls-3" d="M602.3,1240.8c-.5-.5-1.2-.8-2-.8s-.6,0-.9,0l-14.2,4.7c-.9.3-1.6,1.1-1.9,2.1-.2,1,0,2,.8,2.7l10.7,10.4c.5.5,1.2.8,2,.8s.6,0,.9,0l14.2-4.7c.9-.3,1.6-1.1,1.9-2.1s0-2-.8-2.7l-10.7-10.4ZM596.9,1257.9l-10.7-10.4,14.2-4.7,10.7,10.4-14.2,4.7Z"/>
              <polygon class="cls-1" points="586.2 1247.6 596.9 1257.9 611.1 1253.2 600.4 1242.8 586.2 1247.6"/>
              <path class="cls-3" d="M499.4,1235c0-.7-.5-1.4-1-1.9-.2-.2-.5-.3-.8-.5l-13.9-5.4c-.9-.4-2-.2-2.8.4s-1.2,1.6-1.1,2.6l1.7,14.8c0,.7.5,1.4,1,1.9.2.2.5.3.8.5l13.9,5.4c.9.4,2,.2,2.8-.4s1.2-1.6,1.1-2.6l-1.7-14.8ZM484.3,1244.7l-1.7-14.8,13.9,5.4,1.7,14.8-13.9-5.4Z"/>
              <polygon class="cls-1" points="482.6 1229.9 484.3 1244.7 498.2 1250.1 496.6 1235.3 482.6 1229.9"/>
              <path class="cls-3" d="M495.4,1318.3c.5-.6.7-1.3.7-2s0-.6-.2-.9l-5.4-13.9c-.4-.9-1.2-1.6-2.1-1.8s-2,.2-2.6.9l-9.9,11.2c-.5.6-.7,1.3-.7,2s0,.6.2.9l5.4,13.9c.4.9,1.2,1.6,2.1,1.8,1,.2,2-.2,2.6-.9l9.9-11.2ZM478,1313.7l9.9-11.2,5.4,13.9-9.9,11.2-5.4-13.9Z"/>
              <polygon class="cls-1" points="487.9 1302.5 478 1313.7 483.4 1327.6 493.3 1316.4 487.9 1302.5"/>
              <path class="cls-3" d="M363.8,848.8c.8-.7,1-1.8.7-2.8l-4.3-14.3c-.3-1-1-1.7-2-1.9h-.7c-.7,0-1.4.3-2,.8l-10.7,10.4c-.8.7-1,1.8-.7,2.8l4.3,14.3c.3,1,1,1.7,2,1.9h.7c.7,0,1.4-.3,2-.8l10.7-10.4ZM346.8,842.8l10.7-10.4,4.3,14.3-10.7,10.4-4.3-14.3Z"/>
              <polygon class="cls-1" points="357.6 832.4 346.8 842.8 351.1 857.1 361.8 846.7 357.6 832.4"/>
              <path class="cls-3" d="M269.1,878.8c-.1,1.1.4,2.1,1.2,2.7l12.4,8.3c.8.6,1.9.6,2.8.2.2,0,.4-.2.6-.4.6-.5.9-1.1,1-1.9l1.7-14.8c.1-1.1-.4-2.1-1.2-2.7l-12.4-8.3c-.8-.6-1.9-.6-2.8-.2-.2,0-.4.2-.6.4-.6.5-.9,1.1-1,1.9l-1.7,14.8ZM286,872.6l-1.7,14.8-12.4-8.3,1.7-14.8,12.4,8.3Z"/>
              <polygon class="cls-1" points="284.3 887.4 286 872.6 273.6 864.3 271.9 879.1 284.3 887.4"/>
              <path class="cls-3" d="M89,896.3l-7.7-12.8c-.5-.8-1.4-1.4-2.4-1.4s-1.9.5-2.4,1.4l-7.7,12.8c-.5.9-.5,2,0,2.9l7.7,12.8c.5.8,1.4,1.4,2.4,1.4s1.9-.5,2.4-1.4l7.7-12.8c.5-.9.5-2,0-2.9ZM78.8,910.5l-7.7-12.8,7.7-12.8,7.7,12.8-7.7,12.8Z"/>
              <polygon class="cls-1" points="71.1 897.7 78.8 910.5 86.6 897.7 78.8 885 71.1 897.7"/>
              <path class="cls-3" d="M101.4,841.4l14.9,1.5c1,0,2-.3,2.5-1.1.6-.8.7-1.8.4-2.8l-5.6-13.8c-.4-1-1.3-1.7-2.4-1.8l-14.9-1.5c-1,0-2,.3-2.5,1.1-.6.8-.7,1.8-.4,2.8l5.6,13.8c.4,1,1.3,1.7,2.4,1.8ZM96.1,824.8l14.9,1.5,5.6,13.8-14.9-1.5-5.6-13.8Z"/>
              <polygon class="cls-1" points="110.9 826.2 96.1 824.8 101.6 838.6 116.5 840.1 110.9 826.2"/>
              <path class="cls-3" d="M546.1,760.3c.5,0,1,0,1.5-.4l12.7-7.8c.8-.5,1.4-1.4,1.4-2.4s-.5-1.9-1.4-2.4l-12.8-7.7c-.5-.3-1-.4-1.5-.4s-1,0-1.5.4l-12.7,7.8c-.8.5-1.4,1.4-1.4,2.4s.5,1.9,1.4,2.4l12.8,7.7c.4.3,1,.4,1.5.4ZM546.1,742l12.8,7.7-12.7,7.8-12.8-7.7,12.7-7.8Z"/>
              <polygon class="cls-1" points="558.9 749.7 546.1 742 533.4 749.8 546.1 757.5 558.9 749.7"/>
              <path class="cls-3" d="M268.3,718.3c.4.2.8.2,1.2.2.6,0,1.1-.2,1.6-.5l12.3-8.5c.3-.2.6-.5.8-.9h-4.5l-10.2,7.1-.9-7.1h-2.9l.9,7.4c.1,1,.8,1.8,1.7,2.2h0Z"/>
              <polygon class="cls-1" points="279.7 708.7 268.6 708.7 269.5 715.7 279.7 708.7"/>
              <path class="cls-3" d="M13.6,1230.2l5.3-13.9c.4-.9.2-2-.4-2.8-.5-.7-1.4-1.1-2.2-1.1s-.2,0-.3,0l-14.8,1.7c-.4,0-.8.2-1.1.4v6.3l1.5-3.8,14.8-1.7-5.3,13.9-11,1.2v2.9l11.3-1.3c1.1,0,1.9-.8,2.3-1.8h-.1Z"/>
              <polygon class="cls-1" points="16.3 1215.3 1.5 1217 0 1220.8 0 1230.5 11 1229.2 16.3 1215.3"/>
              <path class="cls-3" d="M14.1,868.1c.9-.5,1.4-1.4,1.4-2.4s-.5-1.9-1.3-2.5l-12.5-8.1c-.5-.3-1-.5-1.5-.5S0,854.6,0,854.6v3h.2c0,0,12.5,8,12.5,8l-12.7,7.2v3c.4,0,.8,0,1.1-.4l13-7.3Z"/>
              <polygon class="cls-1" points=".2 857.5 0 857.7 0 872.9 12.8 865.7 .2 857.5"/>
              <path class="cls-3" d="M6.2,741.7l-3-14.6c-.2-1-.9-1.8-1.8-2.1-.3,0-.6-.2-1-.2H0v3.1l.4-.3,3,14.6L0,745v3.6l5.2-4.2c.8-.7,1.2-1.7,1-2.8h0Z"/>
              <polygon class="cls-1" points=".4 727.7 0 728 0 745.1 3.4 742.3 .4 727.7"/>
              <path class="cls-3" d="M308.3,778.1l3.7-14.1c.2-.9,0-2-.7-2.7l-10.1-10.6c-.5-.6-1.3-.9-2.1-.9s-.5,0-.7,0l-13.7,3.6c-1,.3-1.8,1-2,2l-3.7,14.1c-.2.9,0,2,.7,2.7l10.1,10.6c.5.6,1.3.9,2.1.9s.5,0,.7,0l13.7-3.6c1-.3,1.8-1,2-2ZM305.5,777.4l-13.7,3.6-10.1-10.6,3.7-14.1,13.7-3.6,10.1,10.6-3.7,14.1Z"/>
              <polygon class="cls-1" points="299.1 752.7 285.4 756.2 281.8 770.3 291.8 780.9 305.5 777.4 309.2 763.2 299.1 752.7"/>
              <path class="cls-3" d="M455.7,719.7h14.2c1,0,2-.6,2.5-1.5l5.3-9.5h-3.2l-4.5,8.2h-14.2l-4.5-8.2h-3.2l5.3,9.5c.5.9,1.4,1.5,2.5,1.5h-.2Z"/>
              <polygon class="cls-1" points="469.9 716.8 474.4 708.7 451.2 708.7 455.7 716.8 469.9 716.8"/>
              <path class="cls-3" d="M1.6,1102.6l7.1-12.8c.5-.9.5-1.9,0-2.8l-7.1-12.8c-.4-.6-.9-1.1-1.6-1.3v4.3l6.2,11.2-6.2,11.2v4.3c.7-.2,1.2-.7,1.6-1.3h0Z"/>
              <polygon class="cls-1" points="0 1077.3 0 1099.7 6.2 1088.5 0 1077.3"/>
              <path class="cls-3" d="M118.1,1323.6c-.3-1-1.2-1.7-2.2-1.8l-14-2.4h-.5c-.9,0-1.7.4-2.2,1.1l-9.1,11.4c-.6.8-.8,1.8-.5,2.7l4.9,13.8c.3,1,1.2,1.7,2.2,1.8l14,2.4h.5c.9,0,1.7-.4,2.2-1.1l9.1-11.4c.6-.8.8-1.8.5-2.7l-4.9-13.8ZM111.2,1349.7l-14-2.4-4.9-13.8,9.1-11.4,14,2.4,4.9,13.8-9.1,11.4Z"/>
              <polygon class="cls-1" points="101.4 1322.2 92.3 1333.6 97.2 1347.4 111.2 1349.7 120.3 1338.3 115.4 1324.6 101.4 1322.2"/>
              <path class="cls-3" d="M190.2,1251.5c-.3-1-1.2-1.7-2.2-1.8l-14-2.4h-.5c-.9,0-1.7.4-2.2,1.1l-9.1,11.4c-.6.8-.8,1.8-.5,2.7l4.9,13.8c.3,1,1.2,1.7,2.2,1.8l14,2.4h.5c.9,0,1.7-.4,2.2-1.1l9.1-11.4c.6-.8.8-1.8.5-2.7l-4.9-13.8ZM183.3,1277.6l-14-2.4-4.9-13.8,9.1-11.4,14,2.4,4.9,13.8-9.1,11.4Z"/>
              <polygon class="cls-1" points="173.6 1250.1 164.5 1261.5 169.3 1275.2 183.3 1277.6 192.4 1266.2 187.5 1252.4 173.6 1250.1"/>
              <path class="cls-3" d="M326.4,1306.7c.3-1,0-2.1-.7-2.8l-9.8-10.2c-.1,0-.2-.2-.4-.3-.7-.5-1.6-.7-2.4-.5l-14.1,3.8c-.9.3-1.7,1-2,1.9l-4.3,14c-.3,1,0,2.1.7,2.8l9.8,10.2c.1,0,.2.2.4.3.7.5,1.6.7,2.4.5l14.1-3.8c.9-.3,1.7-1,2-1.9l4.3-14ZM305.4,1323.5l-9.8-10.2,4.3-14,14.1-3.8,9.8,10.2-4.3,14-14.1,3.8Z"/>
              <polygon class="cls-1" points="313.9 1295.6 299.8 1299.4 295.5 1313.3 305.4 1323.5 319.5 1319.8 323.7 1305.8 313.9 1295.6"/>
              <path class="cls-3" d="M185.9,944.6c.7,0,1.4-.3,2-.8l10.6-10c.7-.7,1-1.7.8-2.6l-2.9-14.3c-.2-1-.9-1.8-1.9-2.1l-13.5-4.3c-.3,0-.6,0-.9,0-.7,0-1.4.3-1.9.8l-10.6,10c-.7.7-1,1.7-.8,2.6l2.9,14.3c.2,1,.9,1.8,1.9,2.1l13.5,4.3c.3,0,.6,0,.9,0h-.1ZM169.4,923.3l10.6-10,13.5,4.3,2.9,14.3-10.6,10-13.5-4.3-2.9-14.3Z"/>
              <polygon class="cls-1" points="196.5 931.8 193.5 917.5 180 913.2 169.4 923.3 172.4 937.5 185.9 941.8 196.5 931.8"/>
              <path class="cls-3" d="M572.9,882.7l2-14.5c0-1-.2-1.9-1-2.6l-11.2-9.3c-.5-.4-1.2-.7-1.8-.7s-.7,0-1,.2l-13.2,5.1c-1,.4-1.6,1.2-1.8,2.3l-2,14.5c0,1,.2,1.9,1,2.6l11.2,9.3c.5.4,1.2.7,1.8.7s.7,0,1-.2l13.2-5.1c1-.4,1.6-1.2,1.8-2.3ZM556.9,887.5l-11.2-9.3,2-14.5,13.2-5.1,11.2,9.3-2,14.5-13.2,5.1Z"/>
              <polygon class="cls-1" points="560.9 858.5 547.7 863.7 545.7 878.1 556.9 887.5 570.1 882.3 572.1 867.9 560.9 858.5"/>
              <path class="cls-3" d="M206,1137.9l7.1-12.8c.5-.9.5-1.9,0-2.8l-7.1-12.8c-.5-.9-1.4-1.5-2.5-1.5h-14.2c-1,0-2,.6-2.5,1.5l-7.1,12.8c-.5.9-.5,1.9,0,2.8l7.1,12.8c.5.9,1.4,1.5,2.5,1.5h14.2c1,0,2-.6,2.5-1.5ZM189.4,1136.5l-7.1-12.8,7.1-12.8h14.2l7.1,12.8-7.1,12.8h-14.2Z"/>
              <polygon class="cls-1" points="203.6 1111 189.4 1111 182.3 1123.7 189.4 1136.5 203.6 1136.5 210.6 1123.7 203.6 1111"/>
              <path class="cls-3" d="M334.3,942.2c-.4-.9-1.3-1.6-2.3-1.7l-14.1-1.4h-.3c-.9,0-1.8.5-2.3,1.2l-8.3,12c-.6.8-.7,1.8-.3,2.7l5.8,13.4c.4.9,1.3,1.6,2.3,1.7l14.1,1.4h.3c.9,0,1.8-.5,2.3-1.2l8.3-12c.6-.8.7-1.8.3-2.7l-5.8-13.4ZM329.2,968.7l-14.1-1.4-5.8-13.4,8.3-12,14.1,1.4,5.8,13.4-8.3,12Z"/>
              <polygon class="cls-1" points="317.5 942 309.3 954 315.1 967.4 329.2 968.7 337.5 956.7 331.7 943.3 317.5 942"/>
              <path class="cls-3" d="M392.1,1229.8c-.5-.3-1-.5-1.5-.5s-.9,0-1.3.3l-26.3,13.3c-.9.5-1.5,1.4-1.5,2.4s.4,2,1.3,2.5l24.7,16.1c.5.3,1,.5,1.5.5s.9,0,1.3-.3c.9-.5,1.5-1.4,1.5-2.4l1.6-29.4c0-1-.4-2-1.3-2.5h0ZM389,1261.6l-24.7-16.1,26.3-13.3-1.6,29.4h0Z"/>
              <polygon class="cls-1" points="389 1261.6 390.6 1232.2 364.3 1245.5 389 1261.6"/>
              <path class="cls-3" d="M369.2,752.6h.6l28.8-6.2c1-.2,1.8-.9,2.1-1.9.3-1,0-2-.6-2.8l-19.7-21.9c-.5-.6-1.3-.9-2.1-.9s-.4,0-.6,0c-1,.2-1.8.9-2.1,1.9l-9.1,28c-.3,1,0,2,.6,2.8.5.6,1.3.9,2.1.9h0ZM378.3,721.7l19.7,21.9-28.8,6.2,9.1-28h0Z"/>
              <polygon class="cls-1" points="378.3 721.7 369.2 749.7 398 743.6 378.3 721.7"/>
              <path class="cls-3" d="M615,825.8c.3,0,.5,0,.8,0l28.2-8.4c1-.3,1.7-1.1,1.9-2.1s0-2-.8-2.7l-21.4-20.2c-.5-.5-1.2-.8-1.9-.8s-.5,0-.8,0c-1,.3-1.7,1.1-1.9,2.1l-6.8,28.7c-.2,1,0,2,.8,2.7.5.5,1.2.8,1.9.8h0ZM621.8,794.3l21.4,20.2-28.2,8.4,6.8-28.7h0Z"/>
              <polygon class="cls-1" points="621.8 794.3 615 822.9 643.3 814.5 621.8 794.3"/>
              <path class="cls-3" d="M449.2,898.8c-.5-.7-1.4-1.1-2.2-1.1s-.3,0-.4,0c-1,0-1.9.8-2.2,1.7l-11.2,27.2c-.4.9-.2,2,.4,2.8.5.7,1.4,1.1,2.2,1.1s.3,0,.4,0l29.2-3.9c1,0,1.9-.8,2.2-1.7.4-.9.2-2-.4-2.8l-18-23.3ZM435.7,927.8l11.2-27.2,18,23.3-29.2,3.9Z"/>
              <polygon class="cls-1" points="435.7 927.8 464.9 923.9 446.9 900.6 435.7 927.8"/>
              <path class="cls-3" d="M580.2,1029.4h.4c.9,0,1.7-.4,2.2-1.1l18-23.3c.6-.8.8-1.9.4-2.8-.4-.9-1.2-1.6-2.2-1.7l-29.2-4h-.4c-.9,0-1.7.4-2.2,1.1-.6.8-.8,1.9-.4,2.8l11.1,27.3c.4.9,1.2,1.6,2.2,1.7h.1ZM598.6,1003.3l-18,23.3-11.1-27.3,29.2,4h-.1Z"/>
              <polygon class="cls-1" points="598.6 1003.3 569.4 999.3 580.6 1026.6 598.6 1003.3"/>
              <path class="cls-3" d="M7,1349.1c-.5-.9-1.4-1.5-2.4-1.5,0,0-1.8,0-4.6,0v2.8h4.5c0,.2-4.5,7.5-4.5,7.5v5.4l6.9-11.3c.5-.9.6-1.9,0-2.8h0Z"/>
              <polygon class="cls-1" points="0 1350.4 0 1357.8 4.5 1350.5 0 1350.4"/>
              <path class="cls-3" d="M688.5,937.4c-1.3,0-2.5.9-2.8,2.3l-5.2,25c-.2.7,0,1.5.4,2.1s1.1,1.1,1.8,1.2l25,5.2h1v-4.6l-.4,1.8-25-5.2,5.2-25,20.1,4.2v-2.9l-19.5-4.1h-.6Z"/>
              <polygon class="cls-1" points="683.3 965.2 708.3 970.5 708.7 968.7 708.7 944.5 688.5 940.3 683.3 965.2"/>
              <path class="cls-3" d="M707.5,1216l-5.3,13.9c-.4.9-.2,2,.4,2.8.5.7,1.4,1.1,2.2,1.1s.2,0,.3,0l3.6-.4v-2.9l-3.9.4,3.9-10.1v-6.3c-.5.3-.9.8-1.2,1.4h0Z"/>
              <polygon class="cls-1" points="708.7 1230.5 708.7 1220.8 704.8 1230.9 708.7 1230.5"/>
              <path class="cls-3" d="M694.5,862.4c-.9.5-1.4,1.4-1.4,2.4s.5,1.9,1.3,2.5l12.5,8.1c.5.3,1,.5,1.5.5s.2,0,.2,0v-3h-.2c0,0-12.5-8-12.5-8l12.8-7.2v-3c-.4,0-.8,0-1.2.4l-13,7.3h0Z"/>
              <polygon class="cls-1" points="708.4 873 708.7 872.9 708.7 857.7 695.9 864.9 708.4 873"/>
              <path class="cls-3" d="M695.7,734.9c-.8.7-1.2,1.7-1,2.8l3,14.6c.2,1,.9,1.8,1.8,2.1.3,0,.6.2,1,.2.6,0,1.3-.2,1.8-.6l6.4-5.2v-3.6l-8.2,6.6-3-14.6,11.2-9.1v-3.1c-.5,0-1,.3-1.4.6l-11.6,9.4h0Z"/>
              <polygon class="cls-1" points="700.5 751.7 708.7 745.1 708.7 728 697.5 737.1 700.5 751.7"/>
              <path class="cls-3" d="M693.6,1072.9c-1,0-2,.6-2.5,1.5l-7.1,12.8c-.5.9-.5,1.9,0,2.8l7.1,12.8c.5.9,1.4,1.5,2.5,1.5h14.2c.3,0,.6,0,.9,0v-4.3l-.9,1.6h-14.2l-7.1-12.8,7.1-12.8h14.2l.9,1.6v-4.3c-.3,0-.6,0-.9,0h-14.2v-.2Z"/>
              <polygon class="cls-1" points="693.6 1075.7 686.5 1088.5 693.6 1101.3 707.8 1101.3 708.7 1099.7 708.7 1077.3 707.8 1075.7 693.6 1075.7"/>
              <path class="cls-3" d="M681.3,1348.2c-.5.9-.6,1.9,0,2.8l14.1,25.9c.5.9,1.4,1.5,2.4,1.5h0c1,0,1.9-.5,2.4-1.4l8.5-13.9v-5.4l-10.9,17.8-14.1-25.9,25,.6v-2.8c-8.3-.2-25-.6-25-.6-1,0-1.9.5-2.4,1.4Z"/>
              <polygon class="cls-1" points="697.8 1375.6 708.7 1357.8 708.7 1350.4 683.7 1349.7 697.8 1375.6"/>
              <path class="cls-3" d="M652.2,1152.6c-.5-.8-1.4-1.2-2.3-1.2s-.2,0-.3,0c-1,0-1.9.7-2.3,1.6l-12.4,26.7c-.4.9-.3,2,.3,2.8.5.8,1.4,1.2,2.3,1.2s.2,0,.3,0l29.3-2.6c1,0,1.9-.7,2.3-1.6s.3-2-.3-2.8l-17-24.1h.1ZM637.5,1180.9l12.4-26.7,17,24.1-29.3,2.6h-.1Z"/>
              <polygon class="cls-1" points="637.5 1180.9 666.8 1178.3 649.9 1154.2 637.5 1180.9"/>
              <path class="cls-3" d="M241.2,1014.5c-.1-1-.8-1.9-1.7-2.3-.4-.2-.7-.2-1.1-.2-.6,0-1.2.2-1.7.6l-23.5,17.8c-.8.6-1.2,1.6-1.1,2.6.1,1,.8,1.9,1.7,2.3l27.1,11.5c.4.2.7.2,1.1.2.6,0,1.2-.2,1.7-.6.8-.6,1.2-1.6,1.1-2.6l-3.6-29.2h0ZM214.8,1032.6l23.5-17.8,3.6,29.2-27.1-11.5h0Z"/>
              <polygon class="cls-1" points="214.8 1032.6 242 1044.1 238.3 1014.9 214.8 1032.6"/>
              <path class="cls-3" d="M92.1,1001.4c.2-1,0-2-.8-2.7l-21.5-20.1c-.5-.5-1.2-.8-1.9-.8s-.6,0-.8,0c-1,.3-1.7,1.1-1.9,2.1l-6.7,28.7c-.2,1,0,2,.8,2.7.5.5,1.2.8,1.9.8s.6,0,.8,0l28.2-8.6c1-.3,1.7-1.1,1.9-2.1h0ZM61.2,1009.3l6.7-28.7,21.5,20.1-28.2,8.6h0Z"/>
              <polygon class="cls-1" points="61.2 1009.3 89.4 1000.8 67.9 980.7 61.2 1009.3"/>
              <path class="cls-3" d="M149.1,722.8c.5.9,1.4,1.4,2.5,1.4h29.5c1,0,1.9-.5,2.5-1.4.5-.9.5-2,0-2.8l-6.5-11.3h-3.3l7.4,12.8h-29.5l7.4-12.8h-3.3l-6.5,11.3c-.5.9-.5,2,0,2.8h-.2Z"/>
              <polygon class="cls-1" points="181 721.4 173.6 708.7 158.9 708.7 151.5 721.4 181 721.4"/>
              <path class="cls-3" d="M605.7,738h.5c.8,0,1.6-.4,2.1-1l19.2-22.3c.7-.8.9-1.8.5-2.8s-1.2-1.7-2.1-1.9l-7.6-1.4h-15.2l22.2,4.2-19.2,22.3-9.3-26.5h-3l9.6,27.5c.3,1,1.2,1.7,2.1,1.8h.2Z"/>
              <polygon class="cls-1" points="625.5 712.9 603.3 708.7 597 708.7 606.3 735.2 625.5 712.9"/>
              <path class="cls-3" d="M284.6,1415.5l-1.9-14.8c-.1-1-.8-1.8-1.7-2.2-.4-.2-.8-.2-1.2-.2-.6,0-1.1.2-1.6.5l-12.3,8.5c-.9.6-1.3,1.6-1.2,2.7l.9,7.4h2.9l-1-7.7,12.3-8.5,1.9,14.8-2.1,1.4h4.5c.3-.5.5-1.2.4-1.8h.1Z"/>
              <polygon class="cls-1" points="279.9 1401.1 267.6 1409.6 268.6 1417.3 279.7 1417.3 281.8 1415.9 279.9 1401.1"/>
              <path class="cls-3" d="M479.4,1411.4l-7.1-12.8c-.5-.9-1.4-1.5-2.5-1.5h-14.2c-1,0-2,.6-2.5,1.5l-7.1,12.8c-.5.9-.5,1.9,0,2.8l1.8,3.2h3.2l-2.5-4.6,7.1-12.8h14.2l7.1,12.8-2.5,4.6h3.2l1.8-3.2c.5-.9.5-1.9,0-2.8Z"/>
              <polygon class="cls-1" points="469.9 1400 455.7 1400 448.6 1412.7 451.2 1417.3 474.4 1417.3 477 1412.7 469.9 1400"/>
              <path class="cls-3" d="M166.2,1401.7c-1,0-1.9.5-2.5,1.4l-8.2,14.2h3.3l7.4-12.8,7.4,12.8h3.3l-8.2-14.2c-.5-.9-1.4-1.4-2.5-1.4Z"/>
              <polygon class="cls-1" points="158.9 1417.3 173.6 1417.3 166.2 1404.6 158.9 1417.3"/>
              <path class="cls-3" d="M596.6,1413.2c-.8,0-1.6.4-2.1,1-.7.8-.9,1.8-.5,2.8v.3h3.1l-.4-1.3,6.7,1.3h15.2l-21.3-4.1h-.7Z"/>
              <polygon class="cls-1" points="597 1417.3 603.3 1417.3 596.6 1416.1 597 1417.3"/>
            </g>
          </g>
        </g>
      </g>
    </g>
  </g>
</svg>